<svg width="51" height="60" viewBox="0 0 51 60" fill="none" xmlns="http://www.w3.org/2000/svg">
<path d="M25.5 60V28" stroke="#FAFAFA"/>
<path d="M6.67263 16.2C5.75529 16.2 4.92862 16.0587 4.19263 15.776C3.45662 15.488 2.82996 15.0827 2.31262 14.56C1.79529 14.032 1.39796 13.408 1.12062 12.688C0.848625 11.9627 0.712625 11.1653 0.712625 10.296C0.712625 9.14933 0.944625 8.13067 1.40862 7.24C1.87796 6.344 2.54196 5.64267 3.40062 5.136C4.25929 4.624 5.28062 4.368 6.46462 4.368C6.83262 4.368 7.19529 4.392 7.55263 4.44C7.91529 4.488 8.25929 4.55467 8.58463 4.64C8.91529 4.72533 9.21929 4.82133 9.49662 4.928C9.77929 5.02933 10.0273 5.13867 10.2406 5.256L10.0646 7.352C9.65396 7.096 9.25396 6.89067 8.86462 6.736C8.47529 6.576 8.09929 6.46133 7.73663 6.392C7.37929 6.32267 7.03262 6.288 6.69662 6.288C5.99262 6.288 5.36329 6.44533 4.80862 6.76C4.25929 7.07467 3.82729 7.53067 3.51262 8.128C3.19796 8.72533 3.04062 9.448 3.04062 10.296C3.04062 10.8453 3.12062 11.3653 3.28062 11.856C3.44596 12.3413 3.69129 12.7707 4.01662 13.144C4.34196 13.5173 4.74729 13.8107 5.23263 14.024C5.72329 14.232 6.29396 14.336 6.94462 14.336C7.20063 14.336 7.45929 14.32 7.72062 14.288C7.98196 14.2507 8.24329 14.1947 8.50463 14.12C8.76596 14.0453 9.02462 13.944 9.28063 13.816C9.53663 13.688 9.78996 13.5333 10.0406 13.352L10.1766 15.424C9.95262 15.5573 9.70196 15.6747 9.42463 15.776C9.14729 15.872 8.85662 15.952 8.55262 16.016C8.25396 16.08 7.94462 16.1253 7.62463 16.152C7.30463 16.184 6.98729 16.2 6.67263 16.2ZM14.8341 16.2C14.1301 16.2 13.5168 16.088 12.9941 15.864C12.4715 15.6347 12.0368 15.3227 11.6901 14.928C11.3435 14.5333 11.0848 14.0827 10.9141 13.576C10.7435 13.0693 10.6581 12.5387 10.6581 11.984C10.6581 11.1893 10.8181 10.48 11.1381 9.856C11.4581 9.22667 11.9248 8.73067 12.5381 8.368C13.1568 8.00533 13.9088 7.824 14.7941 7.824C15.4768 7.824 16.0741 7.93067 16.5861 8.144C17.1035 8.352 17.5355 8.64533 17.8821 9.024C18.2341 9.40267 18.4981 9.84533 18.6741 10.352C18.8501 10.8533 18.9381 11.3973 18.9381 11.984C18.9381 12.784 18.7755 13.5013 18.4501 14.136C18.1301 14.7707 17.6635 15.2747 17.0501 15.648C16.4368 16.016 15.6981 16.2 14.8341 16.2ZM14.8261 14.52C15.2848 14.52 15.6635 14.4 15.9621 14.16C16.2661 13.9147 16.4928 13.6 16.6421 13.216C16.7915 12.832 16.8661 12.4213 16.8661 11.984C16.8661 11.472 16.7808 11.032 16.6101 10.664C16.4448 10.2907 16.2075 10.0053 15.8981 9.808C15.5888 9.60533 15.2288 9.504 14.8181 9.504C14.3648 9.504 13.9808 9.616 13.6661 9.84C13.3568 10.0587 13.1221 10.3547 12.9621 10.728C12.8075 11.1013 12.7301 11.52 12.7301 11.984C12.7301 12.4213 12.8075 12.832 12.9621 13.216C13.1168 13.6 13.3488 13.9147 13.6581 14.16C13.9728 14.4 14.3621 14.52 14.8261 14.52ZM22.2526 16.168C21.89 16.168 21.554 16.152 21.2446 16.12C20.9406 16.0933 20.6606 16.0533 20.4046 16C20.154 15.9413 19.93 15.88 19.7326 15.816C19.5353 15.752 19.3673 15.6853 19.2286 15.616L19.3566 13.896C19.5646 14.0027 19.8073 14.1013 20.0846 14.192C20.3673 14.2827 20.674 14.3573 21.0046 14.416C21.3353 14.4693 21.6766 14.496 22.0286 14.496C22.4606 14.496 22.802 14.456 23.0526 14.376C23.3086 14.2907 23.49 14.1813 23.5966 14.048C23.7086 13.9093 23.7646 13.7573 23.7646 13.592C23.7646 13.4 23.698 13.2347 23.5646 13.096C23.4366 12.9573 23.258 12.8533 23.0286 12.784C22.7993 12.7093 22.53 12.672 22.2206 12.672C21.906 12.672 21.6233 12.672 21.3726 12.672C21.1273 12.672 20.8846 12.672 20.6446 12.672V11.296C20.858 11.296 21.0766 11.296 21.3006 11.296C21.53 11.296 21.7913 11.296 22.0846 11.296C22.5753 11.296 22.9433 11.2107 23.1886 11.04C23.4393 10.864 23.5646 10.6347 23.5646 10.352C23.5646 10.1707 23.5033 10.0187 23.3806 9.896C23.258 9.768 23.082 9.67467 22.8526 9.616C22.6233 9.552 22.346 9.52 22.0206 9.52C21.7593 9.52 21.4953 9.53867 21.2286 9.576C20.962 9.608 20.6846 9.66667 20.3966 9.752C20.114 9.83733 19.8153 9.952 19.5006 10.096L19.3406 8.392C19.57 8.29067 19.8446 8.2 20.1646 8.12C20.49 8.03467 20.8446 7.968 21.2286 7.92C21.618 7.86667 22.01 7.84 22.4046 7.84C23.146 7.84 23.754 7.928 24.2286 8.104C24.7033 8.28 25.0526 8.52267 25.2766 8.832C25.5006 9.14133 25.6126 9.496 25.6126 9.896C25.6126 10.4133 25.4793 10.8187 25.2126 11.112C24.946 11.4053 24.6393 11.608 24.2926 11.72V11.888C24.5326 11.952 24.7673 12.056 24.9966 12.2C25.2313 12.344 25.426 12.5467 25.5806 12.808C25.7353 13.064 25.8126 13.3893 25.8126 13.784C25.8126 14.2213 25.706 14.6213 25.4926 14.984C25.2793 15.3413 24.914 15.6293 24.3966 15.848C23.8793 16.0613 23.1646 16.168 22.2526 16.168ZM26.4895 16C26.4895 15.4187 26.4895 14.8587 26.4895 14.32C26.4895 13.776 26.4895 13.1733 26.4895 12.512V11.712C26.4895 11.2053 26.4895 10.7467 26.4895 10.336C26.4895 9.92533 26.4895 9.536 26.4895 9.168C26.4895 8.79467 26.4895 8.416 26.4895 8.032C27.0335 8.032 27.6708 8.032 28.4015 8.032C29.1375 8.032 29.8548 8.032 30.5535 8.032C31.2415 8.032 31.7882 8.112 32.1935 8.272C32.5988 8.42667 32.8895 8.64533 33.0655 8.928C33.2415 9.20533 33.3295 9.53067 33.3295 9.904C33.3295 10.4053 33.2015 10.8053 32.9455 11.104C32.6895 11.3973 32.3828 11.5973 32.0255 11.704V11.84C32.2762 11.8987 32.5135 12 32.7375 12.144C32.9668 12.2827 33.1535 12.4827 33.2975 12.744C33.4468 13 33.5215 13.344 33.5215 13.776C33.5215 14.2133 33.4228 14.6 33.2255 14.936C33.0282 15.2667 32.6868 15.528 32.2015 15.72C31.7162 15.9067 31.0335 16 30.1535 16C29.4122 16 28.7322 16 28.1135 16C27.4948 16 26.9535 16 26.4895 16ZM28.4655 14.472H29.9215C30.3055 14.472 30.6095 14.44 30.8335 14.376C31.0628 14.312 31.2282 14.2107 31.3295 14.072C31.4308 13.9333 31.4815 13.76 31.4815 13.552C31.4815 13.232 31.3615 12.9973 31.1215 12.848C30.8815 12.6987 30.5188 12.624 30.0335 12.624H27.8975V11.304H29.8975C30.2282 11.304 30.4922 11.2667 30.6895 11.192C30.8922 11.1173 31.0388 11.0133 31.1295 10.88C31.2202 10.7413 31.2655 10.5787 31.2655 10.392C31.2655 10.0933 31.1615 9.88 30.9535 9.752C30.7508 9.61867 30.4548 9.552 30.0655 9.552H28.4655C28.4655 9.92 28.4655 10.272 28.4655 10.608C28.4655 10.944 28.4655 11.312 28.4655 11.712V12.512C28.4655 12.8747 28.4655 13.2107 28.4655 13.52C28.4655 13.8293 28.4655 14.1467 28.4655 14.472ZM37.9697 16.2C37.2657 16.2 36.6524 16.088 36.1297 15.864C35.6071 15.6347 35.1724 15.3227 34.8257 14.928C34.4791 14.5333 34.2204 14.0827 34.0497 13.576C33.8791 13.0693 33.7937 12.5387 33.7937 11.984C33.7937 11.1893 33.9537 10.48 34.2737 9.856C34.5937 9.22667 35.0604 8.73067 35.6737 8.368C36.2924 8.00533 37.0444 7.824 37.9297 7.824C38.6124 7.824 39.2097 7.93067 39.7217 8.144C40.2391 8.352 40.6711 8.64533 41.0177 9.024C41.3697 9.40267 41.6337 9.84533 41.8097 10.352C41.9857 10.8533 42.0737 11.3973 42.0737 11.984C42.0737 12.784 41.9111 13.5013 41.5857 14.136C41.2657 14.7707 40.7991 15.2747 40.1857 15.648C39.5724 16.016 38.8337 16.2 37.9697 16.2ZM37.9617 14.52C38.4204 14.52 38.7991 14.4 39.0977 14.16C39.4017 13.9147 39.6284 13.6 39.7777 13.216C39.9271 12.832 40.0017 12.4213 40.0017 11.984C40.0017 11.472 39.9164 11.032 39.7457 10.664C39.5804 10.2907 39.3431 10.0053 39.0337 9.808C38.7244 9.60533 38.3644 9.504 37.9537 9.504C37.5004 9.504 37.1164 9.616 36.8017 9.84C36.4924 10.0587 36.2577 10.3547 36.0977 10.728C35.9431 11.1013 35.8657 11.52 35.8657 11.984C35.8657 12.4213 35.9431 12.832 36.0977 13.216C36.2524 13.6 36.4844 13.9147 36.7937 14.16C37.1084 14.4 37.4977 14.52 37.9617 14.52ZM42.7882 16C42.7882 15.424 42.7882 14.8667 42.7882 14.328C42.7882 13.7893 42.7882 13.1893 42.7882 12.528V11.728C42.7882 11.216 42.7882 10.7547 42.7882 10.344C42.7882 9.928 42.7882 9.536 42.7882 9.168C42.7882 8.79467 42.7882 8.416 42.7882 8.032L44.7962 7.968C44.7962 8.352 44.7962 8.736 44.7962 9.12C44.7962 9.49867 44.7962 9.89867 44.7962 10.32C44.7962 10.736 44.7962 11.2053 44.7962 11.728V12.528C44.7962 13.1893 44.7962 13.7893 44.7962 14.328C44.7962 14.8667 44.7962 15.424 44.7962 16H42.7882ZM44.0042 12.792V11.2H48.7562V12.792H44.0042ZM47.9162 16C47.9162 15.424 47.9162 14.8667 47.9162 14.328C47.9162 13.7893 47.9162 13.1893 47.9162 12.528V11.728C47.9162 11.216 47.9162 10.7547 47.9162 10.344C47.9162 9.928 47.9162 9.536 47.9162 9.168C47.9162 8.79467 47.9162 8.416 47.9162 8.032H49.9242C49.9242 8.416 49.9242 8.79467 49.9242 9.168C49.9242 9.536 49.9242 9.928 49.9242 10.344C49.9242 10.7547 49.9242 11.216 49.9242 11.728V12.528C49.9242 13.1893 49.9242 13.7893 49.9242 14.328C49.9242 14.8667 49.9242 15.424 49.9242 16H47.9162Z" fill="white"/>
</svg>
