<svg width="102" height="60" viewBox="0 0 102 60" fill="none" xmlns="http://www.w3.org/2000/svg">
<path d="M51 0V32" stroke="#FAFAFA"/>
<path d="M8.84394 55.648C8.84394 55.024 8.84394 54.424 8.84394 53.848C8.84394 53.2667 8.84394 52.6213 8.84394 51.912V48.752C8.84394 48.0213 8.84394 47.36 8.84394 46.768C8.84394 46.176 8.84394 45.5653 8.84394 44.936L9.53994 46.472H4.05194L5.16394 45.064C5.12127 45.752 5.0786 46.4453 5.03594 47.144C4.99327 47.8427 4.9506 48.5387 4.90794 49.232C4.8546 50.08 4.7746 50.8133 4.66794 51.432C4.56127 52.0507 4.40394 52.5947 4.19594 53.064C3.99327 53.528 3.72394 53.9627 3.38794 54.368L1.25194 54.152C1.5346 53.8693 1.78794 53.504 2.01194 53.056C2.23594 52.608 2.4226 52.0373 2.57194 51.344C2.7266 50.6453 2.83327 49.7893 2.89194 48.776C2.9346 48.04 2.97727 47.32 3.01994 46.616C3.06794 45.912 3.1106 45.2373 3.14794 44.592H11.0839C11.0839 45.2213 11.0839 45.832 11.0839 46.424C11.0839 47.016 11.0839 47.6773 11.0839 48.408V51.912C11.0839 52.6213 11.0839 53.2667 11.0839 53.848C11.0839 54.424 11.0839 55.024 11.0839 55.648H8.84394ZM0.307936 58.44C0.307936 58.088 0.307936 57.736 0.307936 57.384C0.307936 57.032 0.307936 56.68 0.307936 56.328C0.307936 55.9653 0.307936 55.5973 0.307936 55.224C0.307936 54.8507 0.307936 54.4827 0.307936 54.12C1.01727 54.12 1.73194 54.12 2.45194 54.12C3.17727 54.12 3.88127 54.12 4.56394 54.12H8.29194C8.97994 54.12 9.68394 54.12 10.4039 54.12C11.1293 54.12 11.8439 54.12 12.5479 54.12C12.5479 54.4827 12.5479 54.8507 12.5479 55.224C12.5479 55.5973 12.5479 55.9653 12.5479 56.328C12.5479 56.68 12.5479 57.032 12.5479 57.384C12.5479 57.736 12.5479 58.088 12.5479 58.44H10.6679L10.5399 55.648L10.9639 56H1.89194L2.31594 55.648L2.19594 58.44H0.307936ZM16.9132 56.2C15.9105 56.2 15.0892 56.0187 14.4492 55.656C13.8092 55.2933 13.3372 54.7947 13.0332 54.16C12.7292 53.5253 12.5772 52.8 12.5772 51.984C12.5772 51.1733 12.7212 50.456 13.0092 49.832C13.3025 49.2027 13.7319 48.712 14.2972 48.36C14.8625 48.008 15.5559 47.832 16.3772 47.832C17.0865 47.832 17.6919 47.9627 18.1932 48.224C18.6999 48.48 19.0892 48.8667 19.3612 49.384C19.6332 49.896 19.7692 50.5413 19.7692 51.32C19.7692 51.528 19.7639 51.7147 19.7532 51.88C19.7479 52.0453 19.7319 52.208 19.7052 52.368L17.9372 51.656C17.9479 51.5813 17.9559 51.5067 17.9612 51.432C17.9665 51.352 17.9692 51.2773 17.9692 51.208C17.9692 50.6213 17.8225 50.1627 17.5292 49.832C17.2359 49.496 16.8572 49.328 16.3932 49.328C16.0412 49.328 15.7319 49.4293 15.4652 49.632C15.1985 49.8293 14.9879 50.1067 14.8332 50.464C14.6785 50.8213 14.6012 51.2347 14.6012 51.704V52.016C14.6012 52.5333 14.6919 52.9787 14.8732 53.352C15.0545 53.72 15.3345 54.0053 15.7132 54.208C16.0919 54.4053 16.5692 54.504 17.1452 54.504C17.3692 54.504 17.6199 54.4853 17.8972 54.448C18.1799 54.4053 18.4652 54.3413 18.7532 54.256C19.0412 54.1707 19.3105 54.0613 19.5612 53.928L19.6252 55.672C19.4225 55.7733 19.1852 55.864 18.9132 55.944C18.6412 56.024 18.3372 56.0853 18.0012 56.128C17.6652 56.176 17.3025 56.2 16.9132 56.2ZM13.3772 52.368V51.096L18.5052 51.008L19.7052 51.464V52.368H13.3772ZM19.9987 56C20.0627 55.424 20.124 54.8533 20.1827 54.288C20.2467 53.7227 20.308 53.1627 20.3667 52.608L20.4787 51.52C20.5427 50.944 20.6067 50.3627 20.6707 49.776C20.7347 49.1893 20.796 48.608 20.8547 48.032H23.0867C23.268 48.4747 23.4494 48.9227 23.6307 49.376C23.812 49.8293 23.9907 50.2747 24.1667 50.712L25.2067 53.32H25.3667L26.3907 50.712C26.572 50.264 26.7507 49.816 26.9267 49.368C27.1027 48.92 27.2787 48.4747 27.4547 48.032H29.6387C29.7027 48.5973 29.7667 49.1787 29.8307 49.776C29.9 50.3733 29.9667 50.9573 30.0307 51.528L30.1587 52.64C30.2174 53.1733 30.2787 53.7227 30.3427 54.288C30.4067 54.8533 30.4707 55.424 30.5347 56H28.6227C28.5694 55.4613 28.5134 54.92 28.4547 54.376C28.4014 53.832 28.3454 53.2933 28.2867 52.76L28.0707 50.704H27.9187L27.1267 52.888C26.94 53.4053 26.7534 53.9227 26.5667 54.44C26.38 54.9573 26.1934 55.4773 26.0067 56H24.5667C24.3694 55.4773 24.172 54.96 23.9747 54.448C23.7827 53.936 23.5907 53.4267 23.3987 52.92L22.5587 50.704H22.4067L22.1907 52.72C22.132 53.2693 22.0734 53.8187 22.0147 54.368C21.956 54.912 21.8974 55.456 21.8387 56H19.9987ZM34.8957 56.2C34.1917 56.2 33.5784 56.088 33.0557 55.864C32.533 55.6347 32.0984 55.3227 31.7517 54.928C31.405 54.5333 31.1464 54.0827 30.9757 53.576C30.805 53.0693 30.7197 52.5387 30.7197 51.984C30.7197 51.1893 30.8797 50.48 31.1997 49.856C31.5197 49.2267 31.9864 48.7307 32.5997 48.368C33.2184 48.0053 33.9704 47.824 34.8557 47.824C35.5384 47.824 36.1357 47.9307 36.6477 48.144C37.165 48.352 37.597 48.6453 37.9437 49.024C38.2957 49.4027 38.5597 49.8453 38.7357 50.352C38.9117 50.8533 38.9997 51.3973 38.9997 51.984C38.9997 52.784 38.837 53.5013 38.5117 54.136C38.1917 54.7707 37.725 55.2747 37.1117 55.648C36.4984 56.016 35.7597 56.2 34.8957 56.2ZM34.8877 54.52C35.3464 54.52 35.725 54.4 36.0237 54.16C36.3277 53.9147 36.5544 53.6 36.7037 53.216C36.853 52.832 36.9277 52.4213 36.9277 51.984C36.9277 51.472 36.8424 51.032 36.6717 50.664C36.5064 50.2907 36.269 50.0053 35.9597 49.808C35.6504 49.6053 35.2904 49.504 34.8797 49.504C34.4264 49.504 34.0424 49.616 33.7277 49.84C33.4184 50.0587 33.1837 50.3547 33.0237 50.728C32.869 51.1013 32.7917 51.52 32.7917 51.984C32.7917 52.4213 32.869 52.832 33.0237 53.216C33.1784 53.6 33.4104 53.9147 33.7197 54.16C34.0344 54.4 34.4237 54.52 34.8877 54.52ZM39.7142 56C39.7142 55.424 39.7142 54.8667 39.7142 54.328C39.7142 53.7893 39.7142 53.1893 39.7142 52.528V51.728C39.7142 51.216 39.7142 50.7547 39.7142 50.344C39.7142 49.928 39.7142 49.536 39.7142 49.168C39.7142 48.7947 39.7142 48.416 39.7142 48.032L41.7222 47.968C41.7222 48.352 41.7222 48.736 41.7222 49.12C41.7222 49.4987 41.7222 49.8987 41.7222 50.32C41.7222 50.736 41.7222 51.2053 41.7222 51.728V52.528C41.7222 53.1893 41.7222 53.7893 41.7222 54.328C41.7222 54.8667 41.7222 55.424 41.7222 56H39.7142ZM40.9302 52.792V51.2H45.6822V52.792H40.9302ZM44.8422 56C44.8422 55.424 44.8422 54.8667 44.8422 54.328C44.8422 53.7893 44.8422 53.1893 44.8422 52.528V51.728C44.8422 51.216 44.8422 50.7547 44.8422 50.344C44.8422 49.928 44.8422 49.536 44.8422 49.168C44.8422 48.7947 44.8422 48.416 44.8422 48.032H46.8502C46.8502 48.416 46.8502 48.7947 46.8502 49.168C46.8502 49.536 46.8502 49.928 46.8502 50.344C46.8502 50.7547 46.8502 51.216 46.8502 51.728V52.528C46.8502 53.1893 46.8502 53.7893 46.8502 54.328C46.8502 54.8667 46.8502 55.424 46.8502 56H44.8422ZM51.7333 56.168C50.8426 56.168 50.0853 55.9893 49.4613 55.632C48.8426 55.2693 48.3706 54.776 48.0453 54.152C47.7253 53.528 47.5653 52.8187 47.5653 52.024C47.5653 51.224 47.7173 50.5093 48.0213 49.88C48.3253 49.2453 48.7733 48.7467 49.3653 48.384C49.9626 48.016 50.7013 47.832 51.5813 47.832C51.896 47.832 52.208 47.856 52.5173 47.904C52.8266 47.952 53.1173 48.0213 53.3893 48.112C53.6666 48.1973 53.912 48.2987 54.1253 48.416L53.9653 50.192C53.6613 50.0213 53.3813 49.8907 53.1253 49.8C52.8746 49.7093 52.6426 49.648 52.4293 49.616C52.216 49.584 52.024 49.568 51.8533 49.568C51.1813 49.568 50.6426 49.784 50.2373 50.216C49.8373 50.648 49.6373 51.232 49.6373 51.968C49.6373 52.4533 49.7333 52.8853 49.9253 53.264C50.1173 53.6373 50.4 53.9333 50.7733 54.152C51.152 54.3653 51.6213 54.472 52.1813 54.472C52.3893 54.472 52.5973 54.4533 52.8053 54.416C53.0133 54.3787 53.2186 54.3227 53.4213 54.248C53.624 54.168 53.8186 54.0667 54.0053 53.944L54.1253 55.72C53.944 55.8053 53.7333 55.8827 53.4933 55.952C53.2586 56.016 52.9946 56.0667 52.7013 56.104C52.408 56.1467 52.0853 56.168 51.7333 56.168ZM56.5858 56C56.5858 55.424 56.5858 54.8667 56.5858 54.328C56.5858 53.7893 56.5858 53.1893 56.5858 52.528V51.728C56.5858 51.2587 56.5858 50.8373 56.5858 50.464C56.5858 50.0907 56.5858 49.736 56.5858 49.4C56.5858 49.064 56.5858 48.7147 56.5858 48.352L57.2338 49.64H56.8898C56.4418 49.64 55.9778 49.64 55.4978 49.64C55.0231 49.64 54.5538 49.64 54.0898 49.64V48.032H61.1058V49.64C60.6471 49.64 60.1778 49.64 59.6978 49.64C59.2231 49.64 58.7591 49.64 58.3058 49.64H57.9698L58.6178 48.352C58.6178 48.7147 58.6178 49.064 58.6178 49.4C58.6178 49.736 58.6178 50.0907 58.6178 50.464C58.6178 50.8373 58.6178 51.2587 58.6178 51.728V52.528C58.6178 53.1893 58.6178 53.7893 58.6178 54.328C58.6178 54.8667 58.6178 55.424 58.6178 56H56.5858ZM61.4904 59.136C61.4904 58.56 61.4904 57.992 61.4904 57.432C61.4904 56.872 61.4904 56.2613 61.4904 55.6V51.728C61.4904 51.1253 61.4904 50.5147 61.4904 49.896C61.4904 49.2773 61.4904 48.656 61.4904 48.032L63.3064 47.928L63.3624 49H63.5384C63.6984 48.7653 63.8931 48.56 64.1224 48.384C64.3571 48.2027 64.6238 48.064 64.9224 47.968C65.2211 47.872 65.5491 47.824 65.9064 47.824C66.6158 47.824 67.2158 48.008 67.7064 48.376C68.1971 48.7387 68.5678 49.2373 68.8184 49.872C69.0691 50.5013 69.1944 51.2107 69.1944 52C69.1944 52.7413 69.0771 53.432 68.8424 54.072C68.6078 54.712 68.2478 55.2267 67.7624 55.616C67.2771 56.0053 66.6664 56.2 65.9304 56.2C65.5944 56.2 65.2878 56.1547 65.0104 56.064C64.7384 55.9787 64.4904 55.8533 64.2664 55.688C64.0424 55.5227 63.8398 55.3227 63.6584 55.088H63.5224V55.704C63.5224 56.312 63.5224 56.88 63.5224 57.408C63.5224 57.9413 63.5224 58.496 63.5224 59.072L61.4904 59.136ZM65.1944 54.448C65.6371 54.448 65.9998 54.3333 66.2824 54.104C66.5704 53.8693 66.7811 53.568 66.9144 53.2C67.0478 52.832 67.1144 52.4373 67.1144 52.016C67.1144 51.5733 67.0424 51.1707 66.8984 50.808C66.7598 50.44 66.5464 50.1467 66.2584 49.928C65.9758 49.704 65.6158 49.592 65.1784 49.592C64.9598 49.592 64.7491 49.6267 64.5464 49.696C64.3438 49.76 64.1544 49.856 63.9784 49.984C63.8024 50.1067 63.6504 50.2587 63.5224 50.44V53.424C63.6451 53.632 63.7864 53.8133 63.9464 53.968C64.1064 54.1227 64.2904 54.2427 64.4984 54.328C64.7064 54.408 64.9384 54.448 65.1944 54.448ZM71.8971 56.184C71.4491 56.184 71.0491 56.0907 70.6971 55.904C70.3451 55.7173 70.0651 55.448 69.8571 55.096C69.6544 54.7387 69.5531 54.3093 69.5531 53.808C69.5531 53.3653 69.6304 52.992 69.7851 52.688C69.9397 52.3787 70.1424 52.128 70.3931 51.936C70.6491 51.7387 70.9291 51.5867 71.2331 51.48C71.5424 51.3733 71.8544 51.296 72.1691 51.248L74.4491 50.912C74.4651 50.5387 74.4011 50.2507 74.2571 50.048C74.1184 49.8453 73.9184 49.7067 73.6571 49.632C73.3957 49.552 73.0944 49.512 72.7531 49.512C72.5717 49.512 72.3744 49.528 72.1611 49.56C71.9531 49.5867 71.7317 49.6293 71.4971 49.688C71.2677 49.7467 71.0277 49.8213 70.7771 49.912C70.5264 49.9973 70.2704 50.1013 70.0091 50.224L69.9131 48.456C70.1104 48.3813 70.3317 48.3067 70.5771 48.232C70.8277 48.1573 71.0997 48.0907 71.3931 48.032C71.6864 47.968 71.9904 47.92 72.3051 47.888C72.6251 47.8507 72.9531 47.832 73.2891 47.832C73.9397 47.832 74.4944 47.928 74.9531 48.12C75.4171 48.3067 75.7717 48.608 76.0171 49.024C76.2624 49.4347 76.3851 49.9707 76.3851 50.632C76.3851 50.888 76.3851 51.2053 76.3851 51.584C76.3851 51.9627 76.3851 52.3093 76.3851 52.624V53.504C76.3851 53.8933 76.3851 54.2907 76.3851 54.696C76.3851 55.096 76.3851 55.5307 76.3851 56H74.5851L74.4651 54.96H74.2971C74.1477 55.1573 73.9611 55.3493 73.7371 55.536C73.5131 55.7173 73.2464 55.872 72.9371 56C72.6331 56.1227 72.2864 56.184 71.8971 56.184ZM72.6331 54.592C72.8571 54.592 73.0784 54.5387 73.2971 54.432C73.5157 54.3253 73.7184 54.176 73.9051 53.984C74.0971 53.792 74.2597 53.5627 74.3931 53.296V52.04C74.3237 52.088 74.2304 52.1333 74.1131 52.176C74.0011 52.2133 73.8331 52.256 73.6091 52.304C73.3851 52.352 73.0704 52.4133 72.6651 52.488C72.4357 52.5307 72.2411 52.6027 72.0811 52.704C71.9264 52.8053 71.8064 52.936 71.7211 53.096C71.6357 53.256 71.5931 53.44 71.5931 53.648C71.5931 53.9947 71.6971 54.24 71.9051 54.384C72.1184 54.5227 72.3611 54.592 72.6331 54.592ZM83.8332 58.168L83.7532 55.752L84.0972 56H77.2892C77.2892 55.424 77.2892 54.8667 77.2892 54.328C77.2892 53.7893 77.2892 53.1893 77.2892 52.528V51.728C77.2892 51.216 77.2892 50.7547 77.2892 50.344C77.2892 49.928 77.2892 49.536 77.2892 49.168C77.2892 48.7947 77.2892 48.416 77.2892 48.032L79.3212 47.968C79.3212 48.352 79.3212 48.736 79.3212 49.12C79.3212 49.4987 79.3212 49.8987 79.3212 50.32C79.3212 50.736 79.3212 51.2053 79.3212 51.728V52.528C79.3212 52.9653 79.3212 53.3573 79.3212 53.704C79.3212 54.0507 79.3212 54.3813 79.3212 54.696C79.3212 55.0107 79.3212 55.3387 79.3212 55.68L78.0812 54.392H82.0732C82.6332 54.392 83.2119 54.392 83.8092 54.392C84.4119 54.392 85.0039 54.392 85.5852 54.392C85.5852 54.7013 85.5852 55.0267 85.5852 55.368C85.5852 55.7093 85.5852 56.0373 85.5852 56.352C85.5852 56.6507 85.5852 56.952 85.5852 57.256C85.5852 57.56 85.5852 57.864 85.5852 58.168H83.8332ZM82.3532 55.68C82.3532 55.3387 82.3532 55.0107 82.3532 54.696C82.3532 54.3813 82.3532 54.0507 82.3532 53.704C82.3532 53.3573 82.3532 52.9653 82.3532 52.528V51.728C82.3532 51.216 82.3532 50.7547 82.3532 50.344C82.3532 49.928 82.3532 49.536 82.3532 49.168C82.3532 48.7947 82.3532 48.416 82.3532 48.032H84.3852C84.3852 48.416 84.3852 48.7947 84.3852 49.168C84.3852 49.536 84.3852 49.928 84.3852 50.344C84.3852 50.7547 84.3852 51.216 84.3852 51.728V52.528C84.3852 52.9653 84.3852 53.3573 84.3852 53.704C84.3852 54.0507 84.3852 54.3813 84.3852 54.696C84.3852 55.0107 84.3852 55.3387 84.3852 55.68H82.3532ZM85.9073 56C85.9073 55.4187 85.9073 54.8613 85.9073 54.328C85.9073 53.7893 85.9073 53.1893 85.9073 52.528V51.728C85.9073 51.216 85.9073 50.7547 85.9073 50.344C85.9073 49.9333 85.9073 49.5413 85.9073 49.168C85.9073 48.7947 85.9073 48.416 85.9073 48.032L87.8673 47.976C87.8673 48.3333 87.8673 48.688 87.8673 49.04C87.8673 49.392 87.8673 49.7653 87.8673 50.16C87.8673 50.5493 87.8673 50.984 87.8673 51.464V53.224H87.9953L89.3153 50.96C89.6086 50.4693 89.8966 49.9787 90.1793 49.488C90.4673 48.992 90.75 48.5067 91.0273 48.032H93.1153C93.1153 48.416 93.1153 48.7947 93.1153 49.168C93.1153 49.5413 93.1153 49.9333 93.1153 50.344C93.1153 50.7547 93.1153 51.216 93.1153 51.728V52.528C93.1153 53.1893 93.1153 53.7893 93.1153 54.328C93.1153 54.8613 93.1153 55.4187 93.1153 56H91.1713C91.1713 55.4347 91.1713 54.888 91.1713 54.36C91.1713 53.8267 91.1713 53.2373 91.1713 52.592V50.8H91.0273L89.7313 53.032C89.4433 53.5333 89.1553 54.032 88.8673 54.528C88.5793 55.024 88.2913 55.5147 88.0033 56H85.9073ZM93.5966 56C93.8632 55.6107 94.1272 55.2187 94.3886 54.824C94.6499 54.4293 94.9059 54.0453 95.1566 53.672L96.2446 52.048L96.8206 52.856C96.1326 52.856 95.5752 52.7573 95.1486 52.56C94.7272 52.3627 94.4179 52.0827 94.2206 51.72C94.0286 51.3573 93.9326 50.936 93.9326 50.456C93.9326 49.864 94.0606 49.392 94.3166 49.04C94.5779 48.688 94.9539 48.432 95.4446 48.272C95.9406 48.112 96.5432 48.032 97.2526 48.032C97.6899 48.032 98.1299 48.032 98.5726 48.032C99.0206 48.032 99.4419 48.032 99.8366 48.032C100.237 48.032 100.575 48.032 100.853 48.032C100.853 48.416 100.853 48.7947 100.853 49.168C100.853 49.5413 100.853 49.9333 100.853 50.344C100.853 50.7547 100.853 51.216 100.853 51.728V52.528C100.853 53.1893 100.853 53.7893 100.853 54.328C100.853 54.8613 100.853 55.4187 100.853 56H98.8766C98.8766 55.68 98.8766 55.3707 98.8766 55.072C98.8766 54.7733 98.8766 54.4667 98.8766 54.152C98.8766 53.832 98.8766 53.4933 98.8766 53.136V51.72C98.8766 51.3253 98.8766 50.9547 98.8766 50.608C98.8766 50.256 98.8766 49.912 98.8766 49.576H97.4446C97.2099 49.576 96.9806 49.608 96.7566 49.672C96.5326 49.7307 96.3459 49.8453 96.1966 50.016C96.0526 50.1867 95.9806 50.4293 95.9806 50.744C95.9806 51.0107 96.0312 51.2187 96.1326 51.368C96.2392 51.5173 96.3726 51.6267 96.5326 51.696C96.6979 51.7653 96.8686 51.808 97.0446 51.824C97.2259 51.84 97.3886 51.848 97.5326 51.848H99.1806V53.208H97.0446L98.0526 52.52L97.1806 53.872C96.9566 54.2293 96.7299 54.5867 96.5006 54.944C96.2766 55.296 96.0499 55.648 95.8206 56H93.5966Z" fill="white"/>
</svg>
