<svg width="140" height="60" viewBox="0 0 140 60" fill="none" xmlns="http://www.w3.org/2000/svg">
<path d="M70 0V32" stroke="#FAFAFA"/>
<path d="M1.45125 56C1.45125 55.3813 1.45125 54.7813 1.45125 54.2C1.45125 53.6187 1.45125 52.9733 1.45125 52.264V48.408C1.45125 47.6773 1.45125 47.016 1.45125 46.424C1.45125 45.832 1.45125 45.2213 1.45125 44.592H10.9153C10.9153 45.2213 10.9153 45.832 10.9153 46.424C10.9153 47.016 10.9153 47.6773 10.9153 48.408V52.264C10.9153 52.9733 10.9153 53.6187 10.9153 54.2C10.9153 54.7813 10.9153 55.3813 10.9153 56H8.66725C8.66725 55.3813 8.66725 54.7813 8.66725 54.2C8.66725 53.6187 8.66725 52.9733 8.66725 52.264V48.752C8.66725 48.0213 8.66725 47.36 8.66725 46.768C8.66725 46.176 8.66725 45.5653 8.66725 44.936L9.33925 46.472H3.02725L3.69925 44.936C3.69925 45.5653 3.69925 46.176 3.69925 46.768C3.69925 47.36 3.69925 48.0213 3.69925 48.752V52.264C3.69925 52.9733 3.69925 53.6187 3.69925 54.2C3.69925 54.7813 3.69925 55.3813 3.69925 56H1.45125ZM16.0048 56.2C15.3008 56.2 14.6874 56.088 14.1648 55.864C13.6421 55.6347 13.2074 55.3227 12.8608 54.928C12.5141 54.5333 12.2554 54.0827 12.0848 53.576C11.9141 53.0693 11.8288 52.5387 11.8288 51.984C11.8288 51.1893 11.9888 50.48 12.3088 49.856C12.6288 49.2267 13.0954 48.7307 13.7088 48.368C14.3274 48.0053 15.0794 47.824 15.9648 47.824C16.6474 47.824 17.2448 47.9307 17.7568 48.144C18.2741 48.352 18.7061 48.6453 19.0528 49.024C19.4048 49.4027 19.6688 49.8453 19.8448 50.352C20.0208 50.8533 20.1088 51.3973 20.1088 51.984C20.1088 52.784 19.9461 53.5013 19.6208 54.136C19.3008 54.7707 18.8341 55.2747 18.2208 55.648C17.6074 56.016 16.8688 56.2 16.0048 56.2ZM15.9968 54.52C16.4554 54.52 16.8341 54.4 17.1328 54.16C17.4368 53.9147 17.6634 53.6 17.8128 53.216C17.9621 52.832 18.0368 52.4213 18.0368 51.984C18.0368 51.472 17.9514 51.032 17.7808 50.664C17.6154 50.2907 17.3781 50.0053 17.0688 49.808C16.7594 49.6053 16.3994 49.504 15.9888 49.504C15.5354 49.504 15.1514 49.616 14.8368 49.84C14.5274 50.0587 14.2928 50.3547 14.1328 50.728C13.9781 51.1013 13.9008 51.52 13.9008 51.984C13.9008 52.4213 13.9781 52.832 14.1328 53.216C14.2874 53.6 14.5194 53.9147 14.8288 54.16C15.1434 54.4 15.5328 54.52 15.9968 54.52ZM20.9851 56.168C20.8731 56.168 20.7478 56.1627 20.6091 56.152C20.4758 56.1413 20.3451 56.1253 20.2171 56.104C20.0945 56.088 19.9851 56.064 19.8891 56.032L19.9771 54.336C20.0625 54.352 20.1451 54.3653 20.2251 54.376C20.3105 54.3813 20.3771 54.384 20.4251 54.384C20.6865 54.384 20.8945 54.2853 21.0491 54.088C21.2091 53.8907 21.3318 53.6293 21.4171 53.304C21.5025 52.9733 21.5665 52.6107 21.6091 52.216C21.6518 51.816 21.6838 51.416 21.7051 51.016C21.7371 50.504 21.7691 49.9973 21.8011 49.496C21.8385 48.9893 21.8731 48.5013 21.9051 48.032H28.1051C28.1051 48.416 28.1051 48.7947 28.1051 49.168C28.1051 49.536 28.1051 49.928 28.1051 50.344C28.1051 50.7547 28.1051 51.216 28.1051 51.728V52.528C28.1051 53.1893 28.1051 53.7893 28.1051 54.328C28.1051 54.8667 28.1051 55.424 28.1051 56H26.0731C26.0731 55.424 26.0731 54.8667 26.0731 54.328C26.0731 53.7893 26.0731 53.1893 26.0731 52.528V51.728C26.0731 51.2587 26.0731 50.8373 26.0731 50.464C26.0731 50.0907 26.0731 49.736 26.0731 49.4C26.0731 49.064 26.0731 48.7147 26.0731 48.352L27.2811 49.64H22.7291L23.7131 48.352C23.6865 48.704 23.6598 49.0773 23.6331 49.472C23.6065 49.8613 23.5771 50.2507 23.5451 50.64C23.5185 51.024 23.4918 51.3973 23.4651 51.76C23.4171 52.3893 23.3531 52.9733 23.2731 53.512C23.1985 54.0453 23.0785 54.512 22.9131 54.912C22.7478 55.3067 22.5105 55.616 22.2011 55.84C21.8971 56.0587 21.4918 56.168 20.9851 56.168ZM29.2226 56C29.2226 55.424 29.2226 54.8667 29.2226 54.328C29.2226 53.7893 29.2226 53.1893 29.2226 52.528V51.728C29.2226 51.216 29.2226 50.7547 29.2226 50.344C29.2226 49.928 29.2226 49.536 29.2226 49.168C29.2226 48.7947 29.2226 48.416 29.2226 48.032L31.2306 47.968C31.2306 48.352 31.2306 48.736 31.2306 49.12C31.2306 49.4987 31.2306 49.8987 31.2306 50.32C31.2306 50.736 31.2306 51.2053 31.2306 51.728V52.528C31.2306 53.1893 31.2306 53.7893 31.2306 54.328C31.2306 54.8667 31.2306 55.424 31.2306 56H29.2226ZM30.4386 52.792V51.2H35.1906V52.792H30.4386ZM34.3506 56C34.3506 55.424 34.3506 54.8667 34.3506 54.328C34.3506 53.7893 34.3506 53.1893 34.3506 52.528V51.728C34.3506 51.216 34.3506 50.7547 34.3506 50.344C34.3506 49.928 34.3506 49.536 34.3506 49.168C34.3506 48.7947 34.3506 48.416 34.3506 48.032H36.3586C36.3586 48.416 36.3586 48.7947 36.3586 49.168C36.3586 49.536 36.3586 49.928 36.3586 50.344C36.3586 50.7547 36.3586 51.216 36.3586 51.728V52.528C36.3586 53.1893 36.3586 53.7893 36.3586 54.328C36.3586 54.8667 36.3586 55.424 36.3586 56H34.3506ZM41.2498 56.2C40.5458 56.2 39.9324 56.088 39.4098 55.864C38.8871 55.6347 38.4524 55.3227 38.1058 54.928C37.7591 54.5333 37.5004 54.0827 37.3298 53.576C37.1591 53.0693 37.0738 52.5387 37.0738 51.984C37.0738 51.1893 37.2338 50.48 37.5538 49.856C37.8738 49.2267 38.3404 48.7307 38.9538 48.368C39.5724 48.0053 40.3244 47.824 41.2098 47.824C41.8924 47.824 42.4898 47.9307 43.0018 48.144C43.5191 48.352 43.9511 48.6453 44.2978 49.024C44.6498 49.4027 44.9138 49.8453 45.0898 50.352C45.2658 50.8533 45.3538 51.3973 45.3538 51.984C45.3538 52.784 45.1911 53.5013 44.8658 54.136C44.5458 54.7707 44.0791 55.2747 43.4658 55.648C42.8524 56.016 42.1138 56.2 41.2498 56.2ZM41.2418 54.52C41.7004 54.52 42.0791 54.4 42.3778 54.16C42.6818 53.9147 42.9084 53.6 43.0578 53.216C43.2071 52.832 43.2818 52.4213 43.2818 51.984C43.2818 51.472 43.1964 51.032 43.0258 50.664C42.8604 50.2907 42.6231 50.0053 42.3138 49.808C42.0044 49.6053 41.6444 49.504 41.2338 49.504C40.7804 49.504 40.3964 49.616 40.0818 49.84C39.7724 50.0587 39.5378 50.3547 39.3778 50.728C39.2231 51.1013 39.1458 51.52 39.1458 51.984C39.1458 52.4213 39.2231 52.832 39.3778 53.216C39.5324 53.6 39.7644 53.9147 40.0738 54.16C40.3884 54.4 40.7778 54.52 41.2418 54.52ZM52.6123 58.168L52.5323 55.752L52.8763 56H46.0683C46.0683 55.424 46.0683 54.8667 46.0683 54.328C46.0683 53.7893 46.0683 53.1893 46.0683 52.528V51.728C46.0683 51.216 46.0683 50.7547 46.0683 50.344C46.0683 49.928 46.0683 49.536 46.0683 49.168C46.0683 48.7947 46.0683 48.416 46.0683 48.032L48.1003 47.968C48.1003 48.352 48.1003 48.736 48.1003 49.12C48.1003 49.4987 48.1003 49.8987 48.1003 50.32C48.1003 50.736 48.1003 51.2053 48.1003 51.728V52.528C48.1003 52.9653 48.1003 53.3573 48.1003 53.704C48.1003 54.0507 48.1003 54.3813 48.1003 54.696C48.1003 55.0107 48.1003 55.3387 48.1003 55.68L46.8603 54.392H50.8523C51.4123 54.392 51.9909 54.392 52.5883 54.392C53.1909 54.392 53.7829 54.392 54.3643 54.392C54.3643 54.7013 54.3643 55.0267 54.3643 55.368C54.3643 55.7093 54.3643 56.0373 54.3643 56.352C54.3643 56.6507 54.3643 56.952 54.3643 57.256C54.3643 57.56 54.3643 57.864 54.3643 58.168H52.6123ZM51.1323 55.68C51.1323 55.3387 51.1323 55.0107 51.1323 54.696C51.1323 54.3813 51.1323 54.0507 51.1323 53.704C51.1323 53.3573 51.1323 52.9653 51.1323 52.528V51.728C51.1323 51.216 51.1323 50.7547 51.1323 50.344C51.1323 49.928 51.1323 49.536 51.1323 49.168C51.1323 48.7947 51.1323 48.416 51.1323 48.032H53.1643C53.1643 48.416 53.1643 48.7947 53.1643 49.168C53.1643 49.536 53.1643 49.928 53.1643 50.344C53.1643 50.7547 53.1643 51.216 53.1643 51.728V52.528C53.1643 52.9653 53.1643 53.3573 53.1643 53.704C53.1643 54.0507 53.1643 54.3813 53.1643 54.696C53.1643 55.0107 53.1643 55.3387 53.1643 55.68H51.1323ZM58.6304 56.2C57.6277 56.2 56.8064 56.0187 56.1664 55.656C55.5264 55.2933 55.0544 54.7947 54.7504 54.16C54.4464 53.5253 54.2944 52.8 54.2944 51.984C54.2944 51.1733 54.4384 50.456 54.7264 49.832C55.0197 49.2027 55.449 48.712 56.0144 48.36C56.5797 48.008 57.273 47.832 58.0944 47.832C58.8037 47.832 59.409 47.9627 59.9104 48.224C60.417 48.48 60.8064 48.8667 61.0784 49.384C61.3504 49.896 61.4864 50.5413 61.4864 51.32C61.4864 51.528 61.481 51.7147 61.4704 51.88C61.465 52.0453 61.449 52.208 61.4224 52.368L59.6544 51.656C59.665 51.5813 59.673 51.5067 59.6784 51.432C59.6837 51.352 59.6864 51.2773 59.6864 51.208C59.6864 50.6213 59.5397 50.1627 59.2464 49.832C58.953 49.496 58.5744 49.328 58.1104 49.328C57.7584 49.328 57.449 49.4293 57.1824 49.632C56.9157 49.8293 56.705 50.1067 56.5504 50.464C56.3957 50.8213 56.3184 51.2347 56.3184 51.704V52.016C56.3184 52.5333 56.409 52.9787 56.5904 53.352C56.7717 53.72 57.0517 54.0053 57.4304 54.208C57.809 54.4053 58.2864 54.504 58.8624 54.504C59.0864 54.504 59.337 54.4853 59.6144 54.448C59.897 54.4053 60.1824 54.3413 60.4704 54.256C60.7584 54.1707 61.0277 54.0613 61.2784 53.928L61.3424 55.672C61.1397 55.7733 60.9024 55.864 60.6304 55.944C60.3584 56.024 60.0544 56.0853 59.7184 56.128C59.3824 56.176 59.0197 56.2 58.6304 56.2ZM55.0944 52.368V51.096L60.2224 51.008L61.4224 51.464V52.368H55.0944ZM62.1639 56C62.1639 55.424 62.1639 54.8667 62.1639 54.328C62.1639 53.7893 62.1639 53.1893 62.1639 52.528V51.728C62.1639 51.216 62.1639 50.7547 62.1639 50.344C62.1639 49.928 62.1639 49.536 62.1639 49.168C62.1639 48.7947 62.1639 48.416 62.1639 48.032L64.1719 47.968C64.1719 48.352 64.1719 48.736 64.1719 49.12C64.1719 49.4987 64.1719 49.8987 64.1719 50.32C64.1719 50.736 64.1719 51.2053 64.1719 51.728V52.528C64.1719 53.1893 64.1719 53.7893 64.1719 54.328C64.1719 54.8667 64.1719 55.424 64.1719 56H62.1639ZM63.3799 52.792V51.2H68.1319V52.792H63.3799ZM67.2919 56C67.2919 55.424 67.2919 54.8667 67.2919 54.328C67.2919 53.7893 67.2919 53.1893 67.2919 52.528V51.728C67.2919 51.216 67.2919 50.7547 67.2919 50.344C67.2919 49.928 67.2919 49.536 67.2919 49.168C67.2919 48.7947 67.2919 48.416 67.2919 48.032H69.2999C69.2999 48.416 69.2999 48.7947 69.2999 49.168C69.2999 49.536 69.2999 49.928 69.2999 50.344C69.2999 50.7547 69.2999 51.216 69.2999 51.728V52.528C69.2999 53.1893 69.2999 53.7893 69.2999 54.328C69.2999 54.8667 69.2999 55.424 69.2999 56H67.2919ZM70.407 56C70.407 55.424 70.407 54.8667 70.407 54.328C70.407 53.7893 70.407 53.1893 70.407 52.528V51.728C70.407 51.216 70.407 50.7547 70.407 50.344C70.407 49.928 70.407 49.536 70.407 49.168C70.407 48.7947 70.407 48.416 70.407 48.032L72.415 47.968C72.415 48.352 72.415 48.736 72.415 49.12C72.415 49.4987 72.415 49.8987 72.415 50.32C72.415 50.736 72.415 51.2053 72.415 51.728V52.528C72.415 53.1893 72.415 53.7893 72.415 54.328C72.415 54.8667 72.415 55.424 72.415 56H70.407ZM71.623 52.792V51.2H76.375V52.792H71.623ZM75.535 56C75.535 55.424 75.535 54.8667 75.535 54.328C75.535 53.7893 75.535 53.1893 75.535 52.528V51.728C75.535 51.216 75.535 50.7547 75.535 50.344C75.535 49.928 75.535 49.536 75.535 49.168C75.535 48.7947 75.535 48.416 75.535 48.032H77.543C77.543 48.416 77.543 48.7947 77.543 49.168C77.543 49.536 77.543 49.928 77.543 50.344C77.543 50.7547 77.543 51.216 77.543 51.728V52.528C77.543 53.1893 77.543 53.7893 77.543 54.328C77.543 54.8667 77.543 55.424 77.543 56H75.535ZM78.6501 56C78.6501 55.4187 78.6501 54.8613 78.6501 54.328C78.6501 53.7893 78.6501 53.1893 78.6501 52.528V51.728C78.6501 51.216 78.6501 50.7547 78.6501 50.344C78.6501 49.9333 78.6501 49.5413 78.6501 49.168C78.6501 48.7947 78.6501 48.416 78.6501 48.032L80.6581 47.968C80.6581 48.512 80.6581 49.04 80.6581 49.552C80.6581 50.064 80.6581 50.6133 80.6581 51.2C80.6581 51.7973 80.6581 52.3547 80.6581 52.872C80.6581 53.3893 80.6581 53.9227 80.6581 54.472H81.8501C82.1701 54.472 82.4608 54.4373 82.7221 54.368C82.9835 54.2987 83.1888 54.168 83.3381 53.976C83.4928 53.7787 83.5701 53.496 83.5701 53.128C83.5701 52.8613 83.5275 52.648 83.4421 52.488C83.3568 52.3227 83.2421 52.1973 83.0981 52.112C82.9595 52.0267 82.8021 51.9707 82.6261 51.944C82.4555 51.912 82.2821 51.896 82.1061 51.896H80.3941L79.8981 50.368C80.2128 50.368 80.5995 50.368 81.0581 50.368C81.5168 50.368 81.9461 50.368 82.3461 50.368C83.0555 50.368 83.6528 50.4587 84.1381 50.64C84.6288 50.8213 84.9995 51.112 85.2501 51.512C85.5008 51.912 85.6261 52.4427 85.6261 53.104C85.6261 53.68 85.5195 54.1867 85.3061 54.624C85.0981 55.056 84.7595 55.3947 84.2901 55.64C83.8208 55.88 83.1941 56 82.4101 56C81.6475 56 80.9488 56 80.3141 56C79.6795 56 79.1248 56 78.6501 56ZM86.7541 56C86.7541 55.424 86.7541 54.8667 86.7541 54.328C86.7541 53.7893 86.7541 53.1893 86.7541 52.528V51.728C86.7541 51.216 86.7541 50.7547 86.7541 50.344C86.7541 49.928 86.7541 49.536 86.7541 49.168C86.7541 48.7947 86.7541 48.416 86.7541 48.032L88.7861 47.968C88.7861 48.3573 88.7861 48.7413 88.7861 49.12C88.7861 49.4987 88.7861 49.8987 88.7861 50.32C88.7861 50.736 88.7861 51.2053 88.7861 51.728V52.528C88.7861 53.1893 88.7861 53.7893 88.7861 54.328C88.7861 54.8667 88.7861 55.424 88.7861 56H86.7541ZM89.8933 56C89.8933 55.4187 89.8933 54.8613 89.8933 54.328C89.8933 53.7893 89.8933 53.1893 89.8933 52.528V51.728C89.8933 51.216 89.8933 50.7547 89.8933 50.344C89.8933 49.9333 89.8933 49.5413 89.8933 49.168C89.8933 48.7947 89.8933 48.416 89.8933 48.032L91.8533 47.976C91.8533 48.3333 91.8533 48.688 91.8533 49.04C91.8533 49.392 91.8533 49.7653 91.8533 50.16C91.8533 50.5493 91.8533 50.984 91.8533 51.464V53.224H91.9813L93.3013 50.96C93.5946 50.4693 93.8826 49.9787 94.1653 49.488C94.4533 48.992 94.7359 48.5067 95.0133 48.032H97.1013C97.1013 48.416 97.1013 48.7947 97.1013 49.168C97.1013 49.5413 97.1013 49.9333 97.1013 50.344C97.1013 50.7547 97.1013 51.216 97.1013 51.728V52.528C97.1013 53.1893 97.1013 53.7893 97.1013 54.328C97.1013 54.8613 97.1013 55.4187 97.1013 56H95.1573C95.1573 55.4347 95.1573 54.888 95.1573 54.36C95.1573 53.8267 95.1573 53.2373 95.1573 52.592V50.8H95.0133L93.7173 53.032C93.4293 53.5333 93.1413 54.032 92.8533 54.528C92.5653 55.024 92.2773 55.5147 91.9893 56H89.8933ZM93.4933 47.016C92.4799 47.016 91.7279 46.7707 91.2373 46.28C90.7519 45.784 90.5066 45.096 90.5013 44.216L92.1413 44.152C92.1413 44.664 92.2453 45.0667 92.4533 45.36C92.6613 45.648 93.0079 45.792 93.4933 45.792C93.8239 45.792 94.0879 45.728 94.2853 45.6C94.4879 45.472 94.6319 45.2907 94.7173 45.056C94.8079 44.816 94.8533 44.536 94.8533 44.216H96.4933C96.4879 45.096 96.2453 45.784 95.7653 46.28C95.2853 46.7707 94.5279 47.016 93.4933 47.016ZM100.317 59.136C100.317 58.56 100.317 57.992 100.317 57.432C100.317 56.872 100.317 56.2613 100.317 55.6V51.728C100.317 51.1253 100.317 50.5147 100.317 49.896C100.317 49.2773 100.317 48.656 100.317 48.032L102.133 47.928L102.189 49H102.365C102.525 48.7653 102.72 48.56 102.949 48.384C103.184 48.2027 103.45 48.064 103.749 47.968C104.048 47.872 104.376 47.824 104.733 47.824C105.442 47.824 106.042 48.008 106.533 48.376C107.024 48.7387 107.394 49.2373 107.645 49.872C107.896 50.5013 108.021 51.2107 108.021 52C108.021 52.7413 107.904 53.432 107.669 54.072C107.434 54.712 107.074 55.2267 106.589 55.616C106.104 56.0053 105.493 56.2 104.757 56.2C104.421 56.2 104.114 56.1547 103.837 56.064C103.565 55.9787 103.317 55.8533 103.093 55.688C102.869 55.5227 102.666 55.3227 102.485 55.088H102.349V55.704C102.349 56.312 102.349 56.88 102.349 57.408C102.349 57.9413 102.349 58.496 102.349 59.072L100.317 59.136ZM104.021 54.448C104.464 54.448 104.826 54.3333 105.109 54.104C105.397 53.8693 105.608 53.568 105.741 53.2C105.874 52.832 105.941 52.4373 105.941 52.016C105.941 51.5733 105.869 51.1707 105.725 50.808C105.586 50.44 105.373 50.1467 105.085 49.928C104.802 49.704 104.442 49.592 104.005 49.592C103.786 49.592 103.576 49.6267 103.373 49.696C103.17 49.76 102.981 49.856 102.805 49.984C102.629 50.1067 102.477 50.2587 102.349 50.44V53.424C102.472 53.632 102.613 53.8133 102.773 53.968C102.933 54.1227 103.117 54.2427 103.325 54.328C103.533 54.408 103.765 54.448 104.021 54.448ZM112.692 56.2C111.689 56.2 110.868 56.0187 110.228 55.656C109.588 55.2933 109.116 54.7947 108.812 54.16C108.508 53.5253 108.356 52.8 108.356 51.984C108.356 51.1733 108.5 50.456 108.788 49.832C109.081 49.2027 109.51 48.712 110.076 48.36C110.641 48.008 111.334 47.832 112.156 47.832C112.865 47.832 113.47 47.9627 113.972 48.224C114.478 48.48 114.868 48.8667 115.14 49.384C115.412 49.896 115.548 50.5413 115.548 51.32C115.548 51.528 115.542 51.7147 115.532 51.88C115.526 52.0453 115.51 52.208 115.484 52.368L113.716 51.656C113.726 51.5813 113.734 51.5067 113.74 51.432C113.745 51.352 113.748 51.2773 113.748 51.208C113.748 50.6213 113.601 50.1627 113.308 49.832C113.014 49.496 112.636 49.328 112.172 49.328C111.82 49.328 111.51 49.4293 111.244 49.632C110.977 49.8293 110.766 50.1067 110.612 50.464C110.457 50.8213 110.38 51.2347 110.38 51.704V52.016C110.38 52.5333 110.47 52.9787 110.652 53.352C110.833 53.72 111.113 54.0053 111.492 54.208C111.87 54.4053 112.348 54.504 112.924 54.504C113.148 54.504 113.398 54.4853 113.676 54.448C113.958 54.4053 114.244 54.3413 114.532 54.256C114.82 54.1707 115.089 54.0613 115.34 53.928L115.404 55.672C115.201 55.7733 114.964 55.864 114.692 55.944C114.42 56.024 114.116 56.0853 113.78 56.128C113.444 56.176 113.081 56.2 112.692 56.2ZM109.156 52.368V51.096L114.284 51.008L115.484 51.464V52.368H109.156ZM116.465 56.168C116.353 56.168 116.228 56.1627 116.089 56.152C115.956 56.1413 115.825 56.1253 115.697 56.104C115.574 56.088 115.465 56.064 115.369 56.032L115.457 54.336C115.542 54.352 115.625 54.3653 115.705 54.376C115.79 54.3813 115.857 54.384 115.905 54.384C116.166 54.384 116.374 54.2853 116.529 54.088C116.689 53.8907 116.812 53.6293 116.897 53.304C116.982 52.9733 117.046 52.6107 117.089 52.216C117.132 51.816 117.164 51.416 117.185 51.016C117.217 50.504 117.249 49.9973 117.281 49.496C117.318 48.9893 117.353 48.5013 117.385 48.032H123.585C123.585 48.416 123.585 48.7947 123.585 49.168C123.585 49.536 123.585 49.928 123.585 50.344C123.585 50.7547 123.585 51.216 123.585 51.728V52.528C123.585 53.1893 123.585 53.7893 123.585 54.328C123.585 54.8667 123.585 55.424 123.585 56H121.553C121.553 55.424 121.553 54.8667 121.553 54.328C121.553 53.7893 121.553 53.1893 121.553 52.528V51.728C121.553 51.2587 121.553 50.8373 121.553 50.464C121.553 50.0907 121.553 49.736 121.553 49.4C121.553 49.064 121.553 48.7147 121.553 48.352L122.761 49.64H118.209L119.193 48.352C119.166 48.704 119.14 49.0773 119.113 49.472C119.086 49.8613 119.057 50.2507 119.025 50.64C118.998 51.024 118.972 51.3973 118.945 51.76C118.897 52.3893 118.833 52.9733 118.753 53.512C118.678 54.0453 118.558 54.512 118.393 54.912C118.228 55.3067 117.99 55.616 117.681 55.84C117.377 56.0587 116.972 56.168 116.465 56.168ZM124.703 56C124.703 55.4187 124.703 54.8613 124.703 54.328C124.703 53.7893 124.703 53.1893 124.703 52.528V51.728C124.703 51.216 124.703 50.7547 124.703 50.344C124.703 49.9333 124.703 49.5413 124.703 49.168C124.703 48.7947 124.703 48.416 124.703 48.032L126.663 47.976C126.663 48.3333 126.663 48.688 126.663 49.04C126.663 49.392 126.663 49.7653 126.663 50.16C126.663 50.5493 126.663 50.984 126.663 51.464V53.224H126.791L128.111 50.96C128.404 50.4693 128.692 49.9787 128.975 49.488C129.263 48.992 129.545 48.5067 129.823 48.032H131.911C131.911 48.416 131.911 48.7947 131.911 49.168C131.911 49.5413 131.911 49.9333 131.911 50.344C131.911 50.7547 131.911 51.216 131.911 51.728V52.528C131.911 53.1893 131.911 53.7893 131.911 54.328C131.911 54.8613 131.911 55.4187 131.911 56H129.967C129.967 55.4347 129.967 54.888 129.967 54.36C129.967 53.8267 129.967 53.2373 129.967 52.592V50.8H129.823L128.527 53.032C128.239 53.5333 127.951 54.032 127.663 54.528C127.375 55.024 127.087 55.5147 126.799 56H124.703ZM135.624 56.168C135.261 56.168 134.925 56.152 134.616 56.12C134.312 56.0933 134.032 56.0533 133.776 56C133.525 55.9413 133.301 55.88 133.104 55.816C132.907 55.752 132.739 55.6853 132.6 55.616L132.728 53.896C132.936 54.0027 133.179 54.1013 133.456 54.192C133.739 54.2827 134.045 54.3573 134.376 54.416C134.707 54.4693 135.048 54.496 135.4 54.496C135.832 54.496 136.173 54.456 136.424 54.376C136.68 54.2907 136.861 54.1813 136.968 54.048C137.08 53.9093 137.136 53.7573 137.136 53.592C137.136 53.4 137.069 53.2347 136.936 53.096C136.808 52.9573 136.629 52.8533 136.4 52.784C136.171 52.7093 135.901 52.672 135.592 52.672C135.277 52.672 134.995 52.672 134.744 52.672C134.499 52.672 134.256 52.672 134.016 52.672V51.296C134.229 51.296 134.448 51.296 134.672 51.296C134.901 51.296 135.163 51.296 135.456 51.296C135.947 51.296 136.315 51.2107 136.56 51.04C136.811 50.864 136.936 50.6347 136.936 50.352C136.936 50.1707 136.875 50.0187 136.752 49.896C136.629 49.768 136.453 49.6747 136.224 49.616C135.995 49.552 135.717 49.52 135.392 49.52C135.131 49.52 134.867 49.5387 134.6 49.576C134.333 49.608 134.056 49.6667 133.768 49.752C133.485 49.8373 133.187 49.952 132.872 50.096L132.712 48.392C132.941 48.2907 133.216 48.2 133.536 48.12C133.861 48.0347 134.216 47.968 134.6 47.92C134.989 47.8667 135.381 47.84 135.776 47.84C136.517 47.84 137.125 47.928 137.6 48.104C138.075 48.28 138.424 48.5227 138.648 48.832C138.872 49.1413 138.984 49.496 138.984 49.896C138.984 50.4133 138.851 50.8187 138.584 51.112C138.317 51.4053 138.011 51.608 137.664 51.72V51.888C137.904 51.952 138.139 52.056 138.368 52.2C138.603 52.344 138.797 52.5467 138.952 52.808C139.107 53.064 139.184 53.3893 139.184 53.784C139.184 54.2213 139.077 54.6213 138.864 54.984C138.651 55.3413 138.285 55.6293 137.768 55.848C137.251 56.0613 136.536 56.168 135.624 56.168Z" fill="white"/>
</svg>
