<svg width="48" height="63" viewBox="0 0 48 63" fill="none" xmlns="http://www.w3.org/2000/svg">
<path d="M24 0V32" stroke="#FAFAFA"/>
<path d="M5.25394 51.544V50.44C5.79794 50.44 6.25127 50.3707 6.61394 50.232C6.9766 50.0933 7.2486 49.9067 7.42994 49.672C7.62194 49.4267 7.71794 49.16 7.71794 48.872C7.71794 48.5947 7.6486 48.3547 7.50994 48.152C7.38194 47.9387 7.17927 47.7733 6.90194 47.656C6.63527 47.5387 6.3046 47.48 5.90994 47.48C5.5046 47.48 5.1526 47.544 4.85394 47.672C4.55527 47.7893 4.3206 47.96 4.14994 48.184C3.98994 48.3973 3.90994 48.6427 3.90994 48.92H1.78194C1.78194 48.28 1.94194 47.7147 2.26194 47.224C2.5926 46.7227 3.06727 46.328 3.68594 46.04C4.3046 45.752 5.04594 45.608 5.90994 45.608C6.79527 45.608 7.5366 45.7467 8.13394 46.024C8.74194 46.3013 9.20594 46.6693 9.52594 47.128C9.84594 47.5867 10.0059 48.0987 10.0059 48.664C10.0059 49.1227 9.88327 49.5333 9.63794 49.896C9.3926 50.248 9.0566 50.5467 8.62994 50.792C8.20327 51.0373 7.70194 51.224 7.12594 51.352C6.54994 51.48 5.92594 51.544 5.25394 51.544ZM5.94194 57.224C5.1526 57.224 4.4646 57.128 3.87794 56.936C3.30194 56.744 2.82194 56.4827 2.43794 56.152C2.0646 55.8107 1.78194 55.4267 1.58994 55C1.39794 54.5627 1.30194 54.104 1.30194 53.624H3.57394C3.59527 53.9867 3.70194 54.296 3.89394 54.552C4.08594 54.808 4.34727 55.0053 4.67794 55.144C5.01927 55.272 5.41927 55.336 5.87794 55.336C6.57127 55.336 7.1046 55.2027 7.47794 54.936C7.85127 54.6587 8.03794 54.2587 8.03794 53.736C8.03794 53.384 7.93127 53.08 7.71794 52.824C7.51527 52.5573 7.20594 52.3547 6.78994 52.216C6.37394 52.0773 5.86194 52.008 5.25394 52.008V50.792C6.2246 50.792 7.0886 50.904 7.84594 51.128C8.61394 51.3413 9.2166 51.6827 9.65394 52.152C10.1019 52.6107 10.3259 53.2187 10.3259 53.976C10.3259 54.616 10.1606 55.1813 9.82994 55.672C9.49927 56.1627 9.00327 56.5467 8.34194 56.824C7.69127 57.0907 6.89127 57.224 5.94194 57.224ZM12.4126 54.808C12.4126 55.0107 12.4659 55.1813 12.5726 55.32C12.6792 55.448 12.8232 55.5493 13.0046 55.624C13.1966 55.688 13.4046 55.72 13.6286 55.72C13.9592 55.72 14.2632 55.6667 14.5406 55.56C14.8179 55.4533 15.0366 55.2773 15.1966 55.032C15.3566 54.7867 15.4366 54.4613 15.4366 54.056L15.6926 54.92C15.6926 55.3893 15.5699 55.7947 15.3246 56.136C15.0792 56.4667 14.7486 56.7227 14.3326 56.904C13.9272 57.0747 13.4686 57.16 12.9566 57.16C12.4552 57.16 12.0072 57.0747 11.6126 56.904C11.2179 56.7333 10.9032 56.4827 10.6686 56.152C10.4446 55.8107 10.3326 55.3947 10.3326 54.904C10.3326 54.4027 10.4606 53.976 10.7166 53.624C10.9832 53.2613 11.3512 52.984 11.8206 52.792C12.3006 52.6 12.8606 52.504 13.5006 52.504C13.8952 52.504 14.2632 52.552 14.6046 52.648C14.9459 52.744 15.2339 52.856 15.4686 52.984C15.7032 53.112 15.8686 53.2347 15.9646 53.352V54.36C15.6659 54.136 15.3566 53.9707 15.0366 53.864C14.7166 53.7573 14.3379 53.704 13.9006 53.704C13.5806 53.704 13.3086 53.752 13.0846 53.848C12.8606 53.944 12.6899 54.072 12.5726 54.232C12.4659 54.392 12.4126 54.584 12.4126 54.808ZM11.7566 51.736L11.0046 50.312C11.3779 50.1093 11.8366 49.9173 12.3806 49.736C12.9246 49.544 13.5272 49.448 14.1886 49.448C14.8286 49.448 15.3886 49.5387 15.8686 49.72C16.3592 49.9013 16.7432 50.168 17.0206 50.52C17.2979 50.8613 17.4366 51.2827 17.4366 51.784V57H15.4366V52.12C15.4366 51.7893 15.3086 51.5333 15.0526 51.352C14.7966 51.16 14.4659 51.064 14.0606 51.064C13.7086 51.064 13.3779 51.1067 13.0686 51.192C12.7699 51.2667 12.5032 51.3573 12.2686 51.464C12.0446 51.5707 11.8739 51.6613 11.7566 51.736ZM25.2984 49.64V57H23.2984V51.464H20.4024V57H18.4024V49.64H25.2984ZM33.3879 49.64L28.5879 60.52H26.4599L28.3159 56.264L25.2599 49.64H27.5639L29.9319 55.496L28.9079 55.464L31.2279 49.64H33.3879ZM34.6911 53.32C34.6911 53.7467 34.7871 54.12 34.9791 54.44C35.1711 54.76 35.4271 55.0107 35.7471 55.192C36.0777 55.3733 36.4404 55.464 36.8351 55.464C37.1551 55.464 37.4644 55.416 37.7631 55.32C38.0617 55.2133 38.3284 55.0747 38.5631 54.904C38.8084 54.7227 38.9951 54.5147 39.1231 54.28V56.408C38.8671 56.6427 38.5311 56.8293 38.1151 56.968C37.7097 57.096 37.2351 57.16 36.6911 57.16C35.9124 57.16 35.2084 57 34.5791 56.68C33.9604 56.36 33.4697 55.912 33.1071 55.336C32.7551 54.7493 32.5791 54.0773 32.5791 53.32C32.5791 52.552 32.7551 51.88 33.1071 51.304C33.4697 50.728 33.9604 50.28 34.5791 49.96C35.2084 49.64 35.9124 49.48 36.6911 49.48C37.2351 49.48 37.7097 49.5493 38.1151 49.688C38.5311 49.816 38.8671 49.992 39.1231 50.216V52.344C38.9951 52.1093 38.8031 51.9067 38.5471 51.736C38.3017 51.5547 38.0297 51.416 37.7311 51.32C37.4324 51.224 37.1337 51.176 36.8351 51.176C36.4404 51.176 36.0777 51.272 35.7471 51.464C35.4271 51.6453 35.1711 51.896 34.9791 52.216C34.7871 52.536 34.6911 52.904 34.6911 53.32ZM39.9432 49.64H41.9432V57H39.9432V49.64ZM44.6472 49.64H47.1272L43.9592 52.68L47.4472 57H44.9832L41.4792 52.68L44.6472 49.64Z" fill="white"/>
</svg>
