<svg width="78" height="60" viewBox="0 0 78 60" fill="none" xmlns="http://www.w3.org/2000/svg">
<path d="M39 0V32" stroke="#FAFAFA"/>
<path d="M9.03675 55.648C9.03675 55.024 9.03675 54.424 9.03675 53.848C9.03675 53.2667 9.03675 52.6213 9.03675 51.912V48.752C9.03675 48.0213 9.03675 47.36 9.03675 46.768C9.03675 46.176 9.03675 45.5653 9.03675 44.936L9.73275 46.472H4.24475L5.35675 45.064C5.31408 45.752 5.27142 46.4453 5.22875 47.144C5.18608 47.8427 5.14342 48.5387 5.10075 49.232C5.04742 50.08 4.96742 50.8133 4.86075 51.432C4.75408 52.0507 4.59675 52.5947 4.38875 53.064C4.18608 53.528 3.91675 53.9627 3.58075 54.368L1.44475 54.152C1.72742 53.8693 1.98075 53.504 2.20475 53.056C2.42875 52.608 2.61542 52.0373 2.76475 51.344C2.91942 50.6453 3.02608 49.7893 3.08475 48.776C3.12742 48.04 3.17008 47.32 3.21275 46.616C3.26075 45.912 3.30342 45.2373 3.34075 44.592H11.2768C11.2768 45.2213 11.2768 45.832 11.2768 46.424C11.2768 47.016 11.2768 47.6773 11.2768 48.408V51.912C11.2768 52.6213 11.2768 53.2667 11.2768 53.848C11.2768 54.424 11.2768 55.024 11.2768 55.648H9.03675ZM0.50075 58.44C0.50075 58.088 0.50075 57.736 0.50075 57.384C0.50075 57.032 0.50075 56.68 0.50075 56.328C0.50075 55.9653 0.50075 55.5973 0.50075 55.224C0.50075 54.8507 0.50075 54.4827 0.50075 54.12C1.21008 54.12 1.92475 54.12 2.64475 54.12C3.37008 54.12 4.07408 54.12 4.75675 54.12H8.48475C9.17275 54.12 9.87675 54.12 10.5968 54.12C11.3221 54.12 12.0368 54.12 12.7408 54.12C12.7408 54.4827 12.7408 54.8507 12.7408 55.224C12.7408 55.5973 12.7408 55.9653 12.7408 56.328C12.7408 56.68 12.7408 57.032 12.7408 57.384C12.7408 57.736 12.7408 58.088 12.7408 58.44H10.8608L10.7328 55.648L11.1568 56H2.08475L2.50875 55.648L2.38875 58.44H0.50075ZM16.946 56.2C16.242 56.2 15.6287 56.088 15.106 55.864C14.5833 55.6347 14.1487 55.3227 13.802 54.928C13.4553 54.5333 13.1967 54.0827 13.026 53.576C12.8553 53.0693 12.77 52.5387 12.77 51.984C12.77 51.1893 12.93 50.48 13.25 49.856C13.57 49.2267 14.0367 48.7307 14.65 48.368C15.2687 48.0053 16.0207 47.824 16.906 47.824C17.5887 47.824 18.186 47.9307 18.698 48.144C19.2153 48.352 19.6473 48.6453 19.994 49.024C20.346 49.4027 20.61 49.8453 20.786 50.352C20.962 50.8533 21.05 51.3973 21.05 51.984C21.05 52.784 20.8873 53.5013 20.562 54.136C20.242 54.7707 19.7753 55.2747 19.162 55.648C18.5487 56.016 17.81 56.2 16.946 56.2ZM16.938 54.52C17.3967 54.52 17.7753 54.4 18.074 54.16C18.378 53.9147 18.6047 53.6 18.754 53.216C18.9033 52.832 18.978 52.4213 18.978 51.984C18.978 51.472 18.8927 51.032 18.722 50.664C18.5567 50.2907 18.3193 50.0053 18.01 49.808C17.7007 49.6053 17.3407 49.504 16.93 49.504C16.4767 49.504 16.0927 49.616 15.778 49.84C15.4687 50.0587 15.234 50.3547 15.074 50.728C14.9193 51.1013 14.842 51.52 14.842 51.984C14.842 52.4213 14.9193 52.832 15.074 53.216C15.2287 53.6 15.4607 53.9147 15.77 54.16C16.0847 54.4 16.474 54.52 16.938 54.52ZM21.7645 59.136C21.7645 58.56 21.7645 57.992 21.7645 57.432C21.7645 56.872 21.7645 56.2613 21.7645 55.6V51.728C21.7645 51.1253 21.7645 50.5147 21.7645 49.896C21.7645 49.2773 21.7645 48.656 21.7645 48.032L23.5805 47.928L23.6365 49H23.8125C23.9725 48.7653 24.1672 48.56 24.3965 48.384C24.6312 48.2027 24.8978 48.064 25.1965 47.968C25.4952 47.872 25.8232 47.824 26.1805 47.824C26.8898 47.824 27.4898 48.008 27.9805 48.376C28.4712 48.7387 28.8418 49.2373 29.0925 49.872C29.3432 50.5013 29.4685 51.2107 29.4685 52C29.4685 52.7413 29.3512 53.432 29.1165 54.072C28.8818 54.712 28.5218 55.2267 28.0365 55.616C27.5512 56.0053 26.9405 56.2 26.2045 56.2C25.8685 56.2 25.5618 56.1547 25.2845 56.064C25.0125 55.9787 24.7645 55.8533 24.5405 55.688C24.3165 55.5227 24.1138 55.3227 23.9325 55.088H23.7965V55.704C23.7965 56.312 23.7965 56.88 23.7965 57.408C23.7965 57.9413 23.7965 58.496 23.7965 59.072L21.7645 59.136ZM25.4685 54.448C25.9112 54.448 26.2738 54.3333 26.5565 54.104C26.8445 53.8693 27.0552 53.568 27.1885 53.2C27.3218 52.832 27.3885 52.4373 27.3885 52.016C27.3885 51.5733 27.3165 51.1707 27.1725 50.808C27.0338 50.44 26.8205 50.1467 26.5325 49.928C26.2498 49.704 25.8898 49.592 25.4525 49.592C25.2338 49.592 25.0232 49.6267 24.8205 49.696C24.6178 49.76 24.4285 49.856 24.2525 49.984C24.0765 50.1067 23.9245 50.2587 23.7965 50.44V53.424C23.9192 53.632 24.0605 53.8133 24.2205 53.968C24.3805 54.1227 24.5645 54.2427 24.7725 54.328C24.9805 54.408 25.2125 54.448 25.4685 54.448ZM32.1711 56.184C31.7231 56.184 31.3231 56.0907 30.9711 55.904C30.6191 55.7173 30.3391 55.448 30.1311 55.096C29.9285 54.7387 29.8271 54.3093 29.8271 53.808C29.8271 53.3653 29.9045 52.992 30.0591 52.688C30.2138 52.3787 30.4165 52.128 30.6671 51.936C30.9231 51.7387 31.2031 51.5867 31.5071 51.48C31.8165 51.3733 32.1285 51.296 32.4431 51.248L34.7231 50.912C34.7391 50.5387 34.6751 50.2507 34.5311 50.048C34.3925 49.8453 34.1925 49.7067 33.9311 49.632C33.6698 49.552 33.3685 49.512 33.0271 49.512C32.8458 49.512 32.6485 49.528 32.4351 49.56C32.2271 49.5867 32.0058 49.6293 31.7711 49.688C31.5418 49.7467 31.3018 49.8213 31.0511 49.912C30.8005 49.9973 30.5445 50.1013 30.2831 50.224L30.1871 48.456C30.3845 48.3813 30.6058 48.3067 30.8511 48.232C31.1018 48.1573 31.3738 48.0907 31.6671 48.032C31.9605 47.968 32.2645 47.92 32.5791 47.888C32.8991 47.8507 33.2271 47.832 33.5631 47.832C34.2138 47.832 34.7685 47.928 35.2271 48.12C35.6911 48.3067 36.0458 48.608 36.2911 49.024C36.5365 49.4347 36.6591 49.9707 36.6591 50.632C36.6591 50.888 36.6591 51.2053 36.6591 51.584C36.6591 51.9627 36.6591 52.3093 36.6591 52.624V53.504C36.6591 53.8933 36.6591 54.2907 36.6591 54.696C36.6591 55.096 36.6591 55.5307 36.6591 56H34.8591L34.7391 54.96H34.5711C34.4218 55.1573 34.2351 55.3493 34.0111 55.536C33.7871 55.7173 33.5205 55.872 33.2111 56C32.9071 56.1227 32.5605 56.184 32.1711 56.184ZM32.9071 54.592C33.1311 54.592 33.3525 54.5387 33.5711 54.432C33.7898 54.3253 33.9925 54.176 34.1791 53.984C34.3711 53.792 34.5338 53.5627 34.6671 53.296V52.04C34.5978 52.088 34.5045 52.1333 34.3871 52.176C34.2751 52.2133 34.1071 52.256 33.8831 52.304C33.6591 52.352 33.3445 52.4133 32.9391 52.488C32.7098 52.5307 32.5151 52.6027 32.3551 52.704C32.2005 52.8053 32.0805 52.936 31.9951 53.096C31.9098 53.256 31.8671 53.44 31.8671 53.648C31.8671 53.9947 31.9711 54.24 32.1791 54.384C32.3925 54.5227 32.6351 54.592 32.9071 54.592ZM41.5233 56.2C40.6539 56.2 39.8966 56.0053 39.2513 55.616C38.6113 55.2267 38.1179 54.624 37.7713 53.808C37.4246 52.992 37.2513 51.944 37.2513 50.664C37.2513 49.4107 37.3926 48.3413 37.6753 47.456C37.9633 46.5653 38.4326 45.8667 39.0833 45.36C39.7339 44.8533 40.6139 44.5493 41.7233 44.448C41.8459 44.4373 42.0406 44.4187 42.3073 44.392C42.5739 44.3653 42.8699 44.336 43.1953 44.304C43.5206 44.272 43.8433 44.2427 44.1633 44.216C44.4886 44.184 44.7713 44.1573 45.0113 44.136L45.1632 46.016C44.9179 46.0373 44.6299 46.0613 44.2993 46.088C43.9686 46.1147 43.6353 46.1413 43.2993 46.168C42.9686 46.1947 42.6753 46.2187 42.4193 46.24C42.1633 46.2613 41.9873 46.2773 41.8913 46.288C41.1873 46.3573 40.6273 46.544 40.2113 46.848C39.8006 47.152 39.5073 47.6053 39.3313 48.208C39.1606 48.8107 39.0699 49.5893 39.0593 50.544L39.4113 50.752C39.4113 51.328 39.4566 51.848 39.5473 52.312C39.6379 52.776 39.7739 53.1733 39.9553 53.504C40.1366 53.8293 40.3553 54.08 40.6113 54.256C40.8726 54.432 41.1739 54.52 41.5153 54.52C41.9579 54.52 42.3206 54.408 42.6033 54.184C42.8913 53.96 43.1046 53.6613 43.2433 53.288C43.3873 52.9147 43.4593 52.5013 43.4593 52.048C43.4593 51.6213 43.3953 51.2373 43.2673 50.896C43.1446 50.5493 42.9446 50.2747 42.6673 50.072C42.3953 49.864 42.0379 49.76 41.5953 49.76C41.3713 49.76 41.1233 49.8053 40.8513 49.896C40.5846 49.9867 40.3126 50.1307 40.0353 50.328C39.7633 50.5253 39.5073 50.7867 39.2673 51.112C39.0913 50.9787 38.9739 50.8133 38.9153 50.616C38.8566 50.4187 38.8353 50.224 38.8513 50.032C38.8673 49.8347 38.8993 49.672 38.9473 49.544H39.2513C39.5073 49.2293 39.7979 48.976 40.1233 48.784C40.4539 48.592 40.8059 48.4507 41.1793 48.36C41.5526 48.264 41.9286 48.216 42.3073 48.216C43.0326 48.216 43.6353 48.3787 44.1153 48.704C44.5953 49.024 44.9526 49.4693 45.1873 50.04C45.4273 50.6053 45.5473 51.2533 45.5473 51.984C45.5473 52.8053 45.3873 53.5333 45.0673 54.168C44.7526 54.8027 44.2939 55.3013 43.6913 55.664C43.0939 56.0213 42.3713 56.2 41.5233 56.2ZM50.0435 56.2C49.3395 56.2 48.7262 56.088 48.2035 55.864C47.6808 55.6347 47.2462 55.3227 46.8995 54.928C46.5528 54.5333 46.2942 54.0827 46.1235 53.576C45.9528 53.0693 45.8675 52.5387 45.8675 51.984C45.8675 51.1893 46.0275 50.48 46.3475 49.856C46.6675 49.2267 47.1342 48.7307 47.7475 48.368C48.3662 48.0053 49.1182 47.824 50.0035 47.824C50.6862 47.824 51.2835 47.9307 51.7955 48.144C52.3128 48.352 52.7448 48.6453 53.0915 49.024C53.4435 49.4027 53.7075 49.8453 53.8835 50.352C54.0595 50.8533 54.1475 51.3973 54.1475 51.984C54.1475 52.784 53.9848 53.5013 53.6595 54.136C53.3395 54.7707 52.8728 55.2747 52.2595 55.648C51.6462 56.016 50.9075 56.2 50.0435 56.2ZM50.0355 54.52C50.4942 54.52 50.8728 54.4 51.1715 54.16C51.4755 53.9147 51.7022 53.6 51.8515 53.216C52.0008 52.832 52.0755 52.4213 52.0755 51.984C52.0755 51.472 51.9902 51.032 51.8195 50.664C51.6542 50.2907 51.4168 50.0053 51.1075 49.808C50.7982 49.6053 50.4382 49.504 50.0275 49.504C49.5742 49.504 49.1902 49.616 48.8755 49.84C48.5662 50.0587 48.3315 50.3547 48.1715 50.728C48.0168 51.1013 47.9395 51.52 47.9395 51.984C47.9395 52.4213 48.0168 52.832 48.1715 53.216C48.3262 53.6 48.5582 53.9147 48.8675 54.16C49.1822 54.4 49.5715 54.52 50.0355 54.52ZM56.5599 56C56.5599 55.424 56.5599 54.8667 56.5599 54.328C56.5599 53.7893 56.5599 53.1893 56.5599 52.528V51.728C56.5599 51.2587 56.5599 50.8373 56.5599 50.464C56.5599 50.0907 56.5599 49.736 56.5599 49.4C56.5599 49.064 56.5599 48.7147 56.5599 48.352L57.2079 49.64H56.8639C56.4159 49.64 55.9519 49.64 55.4719 49.64C54.9972 49.64 54.5279 49.64 54.0639 49.64V48.032H61.0799V49.64C60.6212 49.64 60.1519 49.64 59.6719 49.64C59.1972 49.64 58.7332 49.64 58.2799 49.64H57.9439L58.5919 48.352C58.5919 48.7147 58.5919 49.064 58.5919 49.4C58.5919 49.736 58.5919 50.0907 58.5919 50.464C58.5919 50.8373 58.5919 51.2587 58.5919 51.728V52.528C58.5919 53.1893 58.5919 53.7893 58.5919 54.328C58.5919 54.8667 58.5919 55.424 58.5919 56H56.5599ZM61.4645 56C61.4645 55.424 61.4645 54.8667 61.4645 54.328C61.4645 53.7893 61.4645 53.1893 61.4645 52.528V51.648C61.4645 51.136 61.4645 50.68 61.4645 50.28C61.4645 49.88 61.4645 49.5013 61.4645 49.144C61.4645 48.7867 61.4645 48.416 61.4645 48.032L63.4965 47.968C63.4965 48.5387 63.4965 49.104 63.4965 49.664C63.4965 50.2187 63.4965 50.8 63.4965 51.408V52.912C63.4965 53.4667 63.4965 53.9893 63.4965 54.48C63.4965 54.9653 63.4965 55.472 63.4965 56H61.4645ZM66.6245 56C66.3525 55.6587 66.0752 55.32 65.7925 54.984C65.5152 54.6427 65.2352 54.3067 64.9525 53.976L63.8965 52.696H63.3125V51.32H63.9525L64.8645 50.16C65.1472 49.808 65.4272 49.4533 65.7045 49.096C65.9872 48.7387 66.2672 48.384 66.5445 48.032H68.9365C68.5312 48.5067 68.1258 48.9813 67.7205 49.456C67.3152 49.9307 66.9125 50.4027 66.5125 50.872L65.3125 52.272L65.2245 51.352L66.6725 53.12C67.0885 53.6 67.5018 54.0827 67.9125 54.568C68.3285 55.048 68.7418 55.5253 69.1525 56H66.6245ZM69.442 56C69.442 55.4187 69.442 54.8613 69.442 54.328C69.442 53.7893 69.442 53.1893 69.442 52.528V51.728C69.442 51.216 69.442 50.7547 69.442 50.344C69.442 49.9333 69.442 49.5413 69.442 49.168C69.442 48.7947 69.442 48.416 69.442 48.032L71.402 47.976C71.402 48.3333 71.402 48.688 71.402 49.04C71.402 49.392 71.402 49.7653 71.402 50.16C71.402 50.5493 71.402 50.984 71.402 51.464V53.224H71.53L72.85 50.96C73.1433 50.4693 73.4313 49.9787 73.714 49.488C74.002 48.992 74.2847 48.5067 74.562 48.032H76.65C76.65 48.416 76.65 48.7947 76.65 49.168C76.65 49.5413 76.65 49.9333 76.65 50.344C76.65 50.7547 76.65 51.216 76.65 51.728V52.528C76.65 53.1893 76.65 53.7893 76.65 54.328C76.65 54.8613 76.65 55.4187 76.65 56H74.706C74.706 55.4347 74.706 54.888 74.706 54.36C74.706 53.8267 74.706 53.2373 74.706 52.592V50.8H74.562L73.266 53.032C72.978 53.5333 72.69 54.032 72.402 54.528C72.114 55.024 71.826 55.5147 71.538 56H69.442Z" fill="white"/>
</svg>
