<svg width="119" height="60" viewBox="0 0 119 60" fill="none" xmlns="http://www.w3.org/2000/svg">
<path d="M59.5 0V32" stroke="#FAFAFA"/>
<path d="M8.63825 56C8.63825 55.3813 8.63825 54.7813 8.63825 54.2C8.63825 53.6187 8.63825 52.9733 8.63825 52.264V48.408C8.63825 47.6773 8.63825 47.016 8.63825 46.424C8.63825 45.832 8.63825 45.2213 8.63825 44.592H10.8863C10.8863 45.2213 10.8863 45.832 10.8863 46.424C10.8863 47.016 10.8863 47.6773 10.8863 48.408V52.264C10.8863 52.9733 10.8863 53.6187 10.8863 54.2C10.8863 54.7813 10.8863 55.3813 10.8863 56H8.63825ZM1.36625 56C1.36625 55.3813 1.36625 54.7813 1.36625 54.2C1.36625 53.6187 1.36625 52.9733 1.36625 52.264V48.408C1.36625 47.6773 1.36625 47.016 1.36625 46.424C1.36625 45.832 1.36625 45.2213 1.36625 44.592H3.61425C3.61425 45.2213 3.61425 45.832 3.61425 46.424C3.61425 47.016 3.61425 47.6773 3.61425 48.408V52.264C3.61425 52.9733 3.61425 53.6187 3.61425 54.2C3.61425 54.7813 3.61425 55.3813 3.61425 56H1.36625ZM2.95825 51.184V49.304H9.34225V51.184H2.95825ZM14.1743 56.184C13.7263 56.184 13.3263 56.0907 12.9743 55.904C12.6223 55.7173 12.3423 55.448 12.1343 55.096C11.9316 54.7387 11.8303 54.3093 11.8303 53.808C11.8303 53.3653 11.9076 52.992 12.0623 52.688C12.2169 52.3787 12.4196 52.128 12.6703 51.936C12.9263 51.7387 13.2063 51.5867 13.5103 51.48C13.8196 51.3733 14.1316 51.296 14.4463 51.248L16.7263 50.912C16.7423 50.5387 16.6783 50.2507 16.5343 50.048C16.3956 49.8453 16.1956 49.7067 15.9343 49.632C15.6729 49.552 15.3716 49.512 15.0303 49.512C14.8489 49.512 14.6516 49.528 14.4383 49.56C14.2303 49.5867 14.0089 49.6293 13.7743 49.688C13.5449 49.7467 13.3049 49.8213 13.0543 49.912C12.8036 49.9973 12.5476 50.1013 12.2863 50.224L12.1903 48.456C12.3876 48.3813 12.6089 48.3067 12.8543 48.232C13.1049 48.1573 13.3769 48.0907 13.6703 48.032C13.9636 47.968 14.2676 47.92 14.5823 47.888C14.9023 47.8507 15.2303 47.832 15.5663 47.832C16.2169 47.832 16.7716 47.928 17.2303 48.12C17.6943 48.3067 18.0489 48.608 18.2943 49.024C18.5396 49.4347 18.6623 49.9707 18.6623 50.632C18.6623 50.888 18.6623 51.2053 18.6623 51.584C18.6623 51.9627 18.6623 52.3093 18.6623 52.624V53.504C18.6623 53.8933 18.6623 54.2907 18.6623 54.696C18.6623 55.096 18.6623 55.5307 18.6623 56H16.8623L16.7423 54.96H16.5743C16.4249 55.1573 16.2383 55.3493 16.0143 55.536C15.7903 55.7173 15.5236 55.872 15.2143 56C14.9103 56.1227 14.5636 56.184 14.1743 56.184ZM14.9103 54.592C15.1343 54.592 15.3556 54.5387 15.5743 54.432C15.7929 54.3253 15.9956 54.176 16.1823 53.984C16.3743 53.792 16.5369 53.5627 16.6703 53.296V52.04C16.6009 52.088 16.5076 52.1333 16.3903 52.176C16.2783 52.2133 16.1103 52.256 15.8863 52.304C15.6623 52.352 15.3476 52.4133 14.9423 52.488C14.7129 52.5307 14.5183 52.6027 14.3583 52.704C14.2036 52.8053 14.0836 52.936 13.9983 53.096C13.9129 53.256 13.8703 53.44 13.8703 53.648C13.8703 53.9947 13.9743 54.24 14.1823 54.384C14.3956 54.5227 14.6383 54.592 14.9103 54.592ZM24.2224 56C24.2224 55.5307 24.2224 55.04 24.2224 54.528C24.2224 54.016 24.2224 53.5147 24.2224 53.024C24.0357 53.1093 23.833 53.1867 23.6144 53.256C23.401 53.32 23.1717 53.3733 22.9264 53.416C22.6864 53.4533 22.425 53.472 22.1424 53.472C21.5557 53.472 21.0437 53.3813 20.6064 53.2C20.1744 53.0187 19.8384 52.7413 19.5984 52.368C19.3637 51.9947 19.2464 51.5227 19.2464 50.952C19.2464 50.552 19.2464 50.192 19.2464 49.872C19.2464 49.5467 19.2464 49.2347 19.2464 48.936C19.2464 48.6373 19.2464 48.336 19.2464 48.032L21.2544 47.968C21.2544 48.3733 21.2544 48.784 21.2544 49.2C21.2544 49.6107 21.2544 50.0693 21.2544 50.576C21.2544 51.088 21.3744 51.4453 21.6144 51.648C21.8544 51.8507 22.241 51.952 22.7744 51.952C22.929 51.952 23.089 51.9413 23.2544 51.92C23.425 51.8933 23.593 51.8533 23.7584 51.8C23.929 51.7413 24.0837 51.6693 24.2224 51.584V51.224C24.2224 50.7867 24.2224 50.392 24.2224 50.04C24.2224 49.688 24.2224 49.352 24.2224 49.032C24.2224 48.7067 24.2224 48.3733 24.2224 48.032H26.2304C26.2304 48.416 26.2304 48.7947 26.2304 49.168C26.2304 49.536 26.2304 49.928 26.2304 50.344C26.2304 50.7547 26.2304 51.216 26.2304 51.728V52.528C26.2304 53.1893 26.2304 53.7893 26.2304 54.328C26.2304 54.8667 26.2304 55.424 26.2304 56H24.2224ZM27.3408 56C27.3408 55.4187 27.3408 54.8613 27.3408 54.328C27.3408 53.7893 27.3408 53.1893 27.3408 52.528V51.728C27.3408 51.216 27.3408 50.7547 27.3408 50.344C27.3408 49.9333 27.3408 49.5413 27.3408 49.168C27.3408 48.7947 27.3408 48.416 27.3408 48.032L29.3008 47.976C29.3008 48.3333 29.3008 48.688 29.3008 49.04C29.3008 49.392 29.3008 49.7653 29.3008 50.16C29.3008 50.5493 29.3008 50.984 29.3008 51.464V53.224H29.4288L30.7488 50.96C31.0421 50.4693 31.3301 49.9787 31.6128 49.488C31.9008 48.992 32.1834 48.5067 32.4608 48.032H34.5488C34.5488 48.416 34.5488 48.7947 34.5488 49.168C34.5488 49.5413 34.5488 49.9333 34.5488 50.344C34.5488 50.7547 34.5488 51.216 34.5488 51.728V52.528C34.5488 53.1893 34.5488 53.7893 34.5488 54.328C34.5488 54.8613 34.5488 55.4187 34.5488 56H32.6048C32.6048 55.4347 32.6048 54.888 32.6048 54.36C32.6048 53.8267 32.6048 53.2373 32.6048 52.592V50.8H32.4608L31.1648 53.032C30.8768 53.5333 30.5888 54.032 30.3008 54.528C30.0128 55.024 29.7248 55.5147 29.4368 56H27.3408ZM35.662 56C35.662 55.424 35.662 54.8667 35.662 54.328C35.662 53.7893 35.662 53.1893 35.662 52.528V51.728C35.662 51.216 35.662 50.7547 35.662 50.344C35.662 49.928 35.662 49.536 35.662 49.168C35.662 48.7947 35.662 48.416 35.662 48.032L37.67 47.968C37.67 48.352 37.67 48.736 37.67 49.12C37.67 49.4987 37.67 49.8987 37.67 50.32C37.67 50.736 37.67 51.2053 37.67 51.728V52.528C37.67 53.1893 37.67 53.7893 37.67 54.328C37.67 54.8667 37.67 55.424 37.67 56H35.662ZM36.878 52.792V51.2H41.63V52.792H36.878ZM40.79 56C40.79 55.424 40.79 54.8667 40.79 54.328C40.79 53.7893 40.79 53.1893 40.79 52.528V51.728C40.79 51.216 40.79 50.7547 40.79 50.344C40.79 49.928 40.79 49.536 40.79 49.168C40.79 48.7947 40.79 48.416 40.79 48.032H42.798C42.798 48.416 42.798 48.7947 42.798 49.168C42.798 49.536 42.798 49.928 42.798 50.344C42.798 50.7547 42.798 51.216 42.798 51.728V52.528C42.798 53.1893 42.798 53.7893 42.798 54.328C42.798 54.8667 42.798 55.424 42.798 56H40.79ZM45.8811 56.184C45.4331 56.184 45.0331 56.0907 44.6811 55.904C44.3291 55.7173 44.0491 55.448 43.8411 55.096C43.6385 54.7387 43.5371 54.3093 43.5371 53.808C43.5371 53.3653 43.6145 52.992 43.7691 52.688C43.9238 52.3787 44.1265 52.128 44.3771 51.936C44.6331 51.7387 44.9131 51.5867 45.2171 51.48C45.5265 51.3733 45.8385 51.296 46.1531 51.248L48.4331 50.912C48.4491 50.5387 48.3851 50.2507 48.2411 50.048C48.1025 49.8453 47.9025 49.7067 47.6411 49.632C47.3798 49.552 47.0785 49.512 46.7371 49.512C46.5558 49.512 46.3585 49.528 46.1451 49.56C45.9371 49.5867 45.7158 49.6293 45.4811 49.688C45.2518 49.7467 45.0118 49.8213 44.7611 49.912C44.5105 49.9973 44.2545 50.1013 43.9931 50.224L43.8971 48.456C44.0945 48.3813 44.3158 48.3067 44.5611 48.232C44.8118 48.1573 45.0838 48.0907 45.3771 48.032C45.6705 47.968 45.9745 47.92 46.2891 47.888C46.6091 47.8507 46.9371 47.832 47.2731 47.832C47.9238 47.832 48.4785 47.928 48.9371 48.12C49.4011 48.3067 49.7558 48.608 50.0011 49.024C50.2465 49.4347 50.3691 49.9707 50.3691 50.632C50.3691 50.888 50.3691 51.2053 50.3691 51.584C50.3691 51.9627 50.3691 52.3093 50.3691 52.624V53.504C50.3691 53.8933 50.3691 54.2907 50.3691 54.696C50.3691 55.096 50.3691 55.5307 50.3691 56H48.5691L48.4491 54.96H48.2811C48.1318 55.1573 47.9451 55.3493 47.7211 55.536C47.4971 55.7173 47.2305 55.872 46.9211 56C46.6171 56.1227 46.2705 56.184 45.8811 56.184ZM46.6171 54.592C46.8411 54.592 47.0625 54.5387 47.2811 54.432C47.4998 54.3253 47.7025 54.176 47.8891 53.984C48.0811 53.792 48.2438 53.5627 48.3771 53.296V52.04C48.3078 52.088 48.2145 52.1333 48.0971 52.176C47.9851 52.2133 47.8171 52.256 47.5931 52.304C47.3691 52.352 47.0545 52.4133 46.6491 52.488C46.4198 52.5307 46.2251 52.6027 46.0651 52.704C45.9105 52.8053 45.7905 52.936 45.7051 53.096C45.6198 53.256 45.5771 53.44 45.5771 53.648C45.5771 53.9947 45.6811 54.24 45.8891 54.384C46.1025 54.5227 46.3451 54.592 46.6171 54.592ZM55.2173 56.2C54.2146 56.2 53.3933 56.0187 52.7533 55.656C52.1133 55.2933 51.6413 54.7947 51.3373 54.16C51.0333 53.5253 50.8813 52.8 50.8813 51.984C50.8813 51.1733 51.0253 50.456 51.3133 49.832C51.6066 49.2027 52.0359 48.712 52.6013 48.36C53.1666 48.008 53.8599 47.832 54.6813 47.832C55.3906 47.832 55.9959 47.9627 56.4973 48.224C57.0039 48.48 57.3933 48.8667 57.6653 49.384C57.9373 49.896 58.0733 50.5413 58.0733 51.32C58.0733 51.528 58.0679 51.7147 58.0573 51.88C58.0519 52.0453 58.0359 52.208 58.0093 52.368L56.2413 51.656C56.2519 51.5813 56.2599 51.5067 56.2653 51.432C56.2706 51.352 56.2733 51.2773 56.2733 51.208C56.2733 50.6213 56.1266 50.1627 55.8333 49.832C55.5399 49.496 55.1613 49.328 54.6973 49.328C54.3453 49.328 54.0359 49.4293 53.7693 49.632C53.5026 49.8293 53.2919 50.1067 53.1373 50.464C52.9826 50.8213 52.9053 51.2347 52.9053 51.704V52.016C52.9053 52.5333 52.9959 52.9787 53.1773 53.352C53.3586 53.72 53.6386 54.0053 54.0173 54.208C54.3959 54.4053 54.8733 54.504 55.4493 54.504C55.6733 54.504 55.9239 54.4853 56.2013 54.448C56.4839 54.4053 56.7693 54.3413 57.0573 54.256C57.3453 54.1707 57.6146 54.0613 57.8653 53.928L57.9293 55.672C57.7266 55.7733 57.4893 55.864 57.2173 55.944C56.9453 56.024 56.6413 56.0853 56.3053 56.128C55.9693 56.176 55.6066 56.2 55.2173 56.2ZM51.6813 52.368V51.096L56.8093 51.008L58.0093 51.464V52.368H51.6813ZM58.3028 56C58.3668 55.424 58.4281 54.8533 58.4868 54.288C58.5508 53.7227 58.6121 53.1627 58.6708 52.608L58.7828 51.52C58.8468 50.944 58.9108 50.3627 58.9748 49.776C59.0388 49.1893 59.1001 48.608 59.1588 48.032H61.3908C61.5721 48.4747 61.7534 48.9227 61.9348 49.376C62.1161 49.8293 62.2948 50.2747 62.4708 50.712L63.5108 53.32H63.6708L64.6948 50.712C64.8761 50.264 65.0548 49.816 65.2308 49.368C65.4068 48.92 65.5828 48.4747 65.7587 48.032H67.9428C68.0068 48.5973 68.0708 49.1787 68.1348 49.776C68.2041 50.3733 68.2708 50.9573 68.3348 51.528L68.4628 52.64C68.5214 53.1733 68.5828 53.7227 68.6468 54.288C68.7108 54.8533 68.7748 55.424 68.8388 56H66.9268C66.8734 55.4613 66.8174 54.92 66.7587 54.376C66.7054 53.832 66.6494 53.2933 66.5908 52.76L66.3748 50.704H66.2228L65.4308 52.888C65.2441 53.4053 65.0574 53.9227 64.8708 54.44C64.6841 54.9573 64.4974 55.4773 64.3108 56H62.8708C62.6734 55.4773 62.4761 54.96 62.2788 54.448C62.0868 53.936 61.8948 53.4267 61.7028 52.92L60.8628 50.704H60.7108L60.4948 52.72C60.4361 53.2693 60.3774 53.8187 60.3188 54.368C60.2601 54.912 60.2014 55.456 60.1428 56H58.3028ZM71.5964 59.136C71.5964 58.56 71.5964 57.992 71.5964 57.432C71.5964 56.872 71.5964 56.2613 71.5964 55.6V51.728C71.5964 51.1253 71.5964 50.5147 71.5964 49.896C71.5964 49.2773 71.5964 48.656 71.5964 48.032L73.4124 47.928L73.4684 49H73.6444C73.8044 48.7653 73.999 48.56 74.2284 48.384C74.463 48.2027 74.7297 48.064 75.0284 47.968C75.327 47.872 75.655 47.824 76.0124 47.824C76.7217 47.824 77.3217 48.008 77.8124 48.376C78.303 48.7387 78.6737 49.2373 78.9244 49.872C79.175 50.5013 79.3004 51.2107 79.3004 52C79.3004 52.7413 79.183 53.432 78.9484 54.072C78.7137 54.712 78.3537 55.2267 77.8684 55.616C77.383 56.0053 76.7724 56.2 76.0364 56.2C75.7004 56.2 75.3937 56.1547 75.1164 56.064C74.8444 55.9787 74.5964 55.8533 74.3724 55.688C74.1484 55.5227 73.9457 55.3227 73.7644 55.088H73.6284V55.704C73.6284 56.312 73.6284 56.88 73.6284 57.408C73.6284 57.9413 73.6284 58.496 73.6284 59.072L71.5964 59.136ZM75.3004 54.448C75.743 54.448 76.1057 54.3333 76.3884 54.104C76.6764 53.8693 76.887 53.568 77.0204 53.2C77.1537 52.832 77.2204 52.4373 77.2204 52.016C77.2204 51.5733 77.1484 51.1707 77.0044 50.808C76.8657 50.44 76.6524 50.1467 76.3644 49.928C76.0817 49.704 75.7217 49.592 75.2844 49.592C75.0657 49.592 74.855 49.6267 74.6524 49.696C74.4497 49.76 74.2604 49.856 74.0844 49.984C73.9084 50.1067 73.7564 50.2587 73.6284 50.44V53.424C73.751 53.632 73.8924 53.8133 74.0524 53.968C74.2124 54.1227 74.3964 54.2427 74.6044 54.328C74.8124 54.408 75.0444 54.448 75.3004 54.448ZM82.003 56.184C81.555 56.184 81.155 56.0907 80.803 55.904C80.451 55.7173 80.171 55.448 79.963 55.096C79.7603 54.7387 79.659 54.3093 79.659 53.808C79.659 53.3653 79.7363 52.992 79.891 52.688C80.0457 52.3787 80.2483 52.128 80.499 51.936C80.755 51.7387 81.035 51.5867 81.339 51.48C81.6483 51.3733 81.9603 51.296 82.275 51.248L84.555 50.912C84.571 50.5387 84.507 50.2507 84.363 50.048C84.2243 49.8453 84.0243 49.7067 83.763 49.632C83.5017 49.552 83.2003 49.512 82.859 49.512C82.6777 49.512 82.4803 49.528 82.267 49.56C82.059 49.5867 81.8377 49.6293 81.603 49.688C81.3737 49.7467 81.1337 49.8213 80.883 49.912C80.6323 49.9973 80.3763 50.1013 80.115 50.224L80.019 48.456C80.2163 48.3813 80.4377 48.3067 80.683 48.232C80.9337 48.1573 81.2057 48.0907 81.499 48.032C81.7923 47.968 82.0963 47.92 82.411 47.888C82.731 47.8507 83.059 47.832 83.395 47.832C84.0457 47.832 84.6003 47.928 85.059 48.12C85.523 48.3067 85.8777 48.608 86.123 49.024C86.3683 49.4347 86.491 49.9707 86.491 50.632C86.491 50.888 86.491 51.2053 86.491 51.584C86.491 51.9627 86.491 52.3093 86.491 52.624V53.504C86.491 53.8933 86.491 54.2907 86.491 54.696C86.491 55.096 86.491 55.5307 86.491 56H84.691L84.571 54.96H84.403C84.2537 55.1573 84.067 55.3493 83.843 55.536C83.619 55.7173 83.3523 55.872 83.043 56C82.739 56.1227 82.3923 56.184 82.003 56.184ZM82.739 54.592C82.963 54.592 83.1843 54.5387 83.403 54.432C83.6217 54.3253 83.8243 54.176 84.011 53.984C84.203 53.792 84.3657 53.5627 84.499 53.296V52.04C84.4297 52.088 84.3363 52.1333 84.219 52.176C84.107 52.2133 83.939 52.256 83.715 52.304C83.491 52.352 83.1763 52.4133 82.771 52.488C82.5417 52.5307 82.347 52.6027 82.187 52.704C82.0323 52.8053 81.9123 52.936 81.827 53.096C81.7417 53.256 81.699 53.44 81.699 53.648C81.699 53.9947 81.803 54.24 82.011 54.384C82.2243 54.5227 82.467 54.592 82.739 54.592ZM91.3551 56.2C90.4858 56.2 89.7285 56.0053 89.0831 55.616C88.4431 55.2267 87.9498 54.624 87.6031 53.808C87.2565 52.992 87.0831 51.944 87.0831 50.664C87.0831 49.4107 87.2245 48.3413 87.5071 47.456C87.7951 46.5653 88.2645 45.8667 88.9151 45.36C89.5658 44.8533 90.4458 44.5493 91.5551 44.448C91.6778 44.4373 91.8725 44.4187 92.1391 44.392C92.4058 44.3653 92.7018 44.336 93.0271 44.304C93.3525 44.272 93.6751 44.2427 93.9951 44.216C94.3205 44.184 94.6031 44.1573 94.8431 44.136L94.9951 46.016C94.7498 46.0373 94.4618 46.0613 94.1311 46.088C93.8005 46.1147 93.4671 46.1413 93.1311 46.168C92.8005 46.1947 92.5071 46.2187 92.2511 46.24C91.9951 46.2613 91.8191 46.2773 91.7231 46.288C91.0191 46.3573 90.4591 46.544 90.0431 46.848C89.6325 47.152 89.3391 47.6053 89.1631 48.208C88.9925 48.8107 88.9018 49.5893 88.8911 50.544L89.2431 50.752C89.2431 51.328 89.2885 51.848 89.3791 52.312C89.4698 52.776 89.6058 53.1733 89.7871 53.504C89.9685 53.8293 90.1871 54.08 90.4431 54.256C90.7045 54.432 91.0058 54.52 91.3471 54.52C91.7898 54.52 92.1525 54.408 92.4351 54.184C92.7231 53.96 92.9365 53.6613 93.0751 53.288C93.2191 52.9147 93.2911 52.5013 93.2911 52.048C93.2911 51.6213 93.2271 51.2373 93.0991 50.896C92.9765 50.5493 92.7765 50.2747 92.4991 50.072C92.2271 49.864 91.8698 49.76 91.4271 49.76C91.2031 49.76 90.9551 49.8053 90.6831 49.896C90.4165 49.9867 90.1445 50.1307 89.8671 50.328C89.5951 50.5253 89.3391 50.7867 89.0991 51.112C88.9231 50.9787 88.8058 50.8133 88.7471 50.616C88.6885 50.4187 88.6671 50.224 88.6831 50.032C88.6991 49.8347 88.7311 49.672 88.7791 49.544H89.0831C89.3391 49.2293 89.6298 48.976 89.9551 48.784C90.2858 48.592 90.6378 48.4507 91.0111 48.36C91.3845 48.264 91.7605 48.216 92.1391 48.216C92.8645 48.216 93.4671 48.3787 93.9471 48.704C94.4271 49.024 94.7845 49.4693 95.0191 50.04C95.2591 50.6053 95.3791 51.2533 95.3791 51.984C95.3791 52.8053 95.2191 53.5333 94.8991 54.168C94.5845 54.8027 94.1258 55.3013 93.5231 55.664C92.9258 56.0213 92.2031 56.2 91.3551 56.2ZM99.8754 56.2C99.1714 56.2 98.558 56.088 98.0354 55.864C97.5127 55.6347 97.078 55.3227 96.7314 54.928C96.3847 54.5333 96.126 54.0827 95.9554 53.576C95.7847 53.0693 95.6994 52.5387 95.6994 51.984C95.6994 51.1893 95.8594 50.48 96.1794 49.856C96.4994 49.2267 96.966 48.7307 97.5794 48.368C98.198 48.0053 98.95 47.824 99.8354 47.824C100.518 47.824 101.115 47.9307 101.627 48.144C102.145 48.352 102.577 48.6453 102.923 49.024C103.275 49.4027 103.539 49.8453 103.715 50.352C103.891 50.8533 103.979 51.3973 103.979 51.984C103.979 52.784 103.817 53.5013 103.491 54.136C103.171 54.7707 102.705 55.2747 102.091 55.648C101.478 56.016 100.739 56.2 99.8754 56.2ZM99.8674 54.52C100.326 54.52 100.705 54.4 101.003 54.16C101.307 53.9147 101.534 53.6 101.683 53.216C101.833 52.832 101.907 52.4213 101.907 51.984C101.907 51.472 101.822 51.032 101.651 50.664C101.486 50.2907 101.249 50.0053 100.939 49.808C100.63 49.6053 100.27 49.504 99.8594 49.504C99.406 49.504 99.022 49.616 98.7074 49.84C98.398 50.0587 98.1634 50.3547 98.0034 50.728C97.8487 51.1013 97.7714 51.52 97.7714 51.984C97.7714 52.4213 97.8487 52.832 98.0034 53.216C98.158 53.6 98.39 53.9147 98.6994 54.16C99.014 54.4 99.4034 54.52 99.8674 54.52ZM106.392 56C106.392 55.424 106.392 54.8667 106.392 54.328C106.392 53.7893 106.392 53.1893 106.392 52.528V51.728C106.392 51.2587 106.392 50.8373 106.392 50.464C106.392 50.0907 106.392 49.736 106.392 49.4C106.392 49.064 106.392 48.7147 106.392 48.352L107.04 49.64H106.696C106.248 49.64 105.784 49.64 105.304 49.64C104.829 49.64 104.36 49.64 103.896 49.64V48.032H110.912V49.64C110.453 49.64 109.984 49.64 109.504 49.64C109.029 49.64 108.565 49.64 108.112 49.64H107.776L108.424 48.352C108.424 48.7147 108.424 49.064 108.424 49.4C108.424 49.736 108.424 50.0907 108.424 50.464C108.424 50.8373 108.424 51.2587 108.424 51.728V52.528C108.424 53.1893 108.424 53.7893 108.424 54.328C108.424 54.8667 108.424 55.424 108.424 56H106.392ZM112.184 59.136C112.403 58.5973 112.622 58.0507 112.84 57.496C113.064 56.9413 113.283 56.3973 113.496 55.864V56.272C113.304 55.7227 113.107 55.1707 112.904 54.616C112.707 54.056 112.512 53.5093 112.32 52.976L111.808 51.536C111.606 50.9653 111.395 50.3813 111.176 49.784C110.963 49.1813 110.755 48.5973 110.552 48.032L112.744 47.968C112.92 48.5813 113.091 49.1813 113.256 49.768C113.427 50.3547 113.6 50.9573 113.776 51.576L114.424 53.864H114.608L115.32 51.576C115.507 50.9787 115.691 50.3893 115.872 49.808C116.054 49.2213 116.238 48.6293 116.424 48.032H118.592C118.427 48.4587 118.267 48.872 118.112 49.272C117.958 49.672 117.787 50.112 117.6 50.592C117.414 51.072 117.19 51.6453 116.928 52.312L116.056 54.552C115.662 55.5653 115.326 56.4267 115.048 57.136C114.776 57.8507 114.526 58.496 114.296 59.072L112.184 59.136Z" fill="white"/>
</svg>
