<svg width="323" height="63" viewBox="0 0 323 63" fill="none" xmlns="http://www.w3.org/2000/svg">
<path d="M8.79206 15.648C8.79206 15.024 8.79206 14.424 8.79206 13.848C8.79206 13.2667 8.79206 12.6213 8.79206 11.912V8.752C8.79206 8.02133 8.79206 7.36 8.79206 6.768C8.79206 6.176 8.79206 5.56533 8.79206 4.936L9.48806 6.472H4.00006L5.11206 5.064C5.0694 5.752 5.02673 6.44533 4.98406 7.144C4.9414 7.84267 4.89873 8.53867 4.85606 9.232C4.80273 10.08 4.72273 10.8133 4.61606 11.432C4.5094 12.0507 4.35206 12.5947 4.14406 13.064C3.9414 13.528 3.67206 13.9627 3.33606 14.368L1.20006 14.152C1.48273 13.8693 1.73606 13.504 1.96006 13.056C2.18406 12.608 2.37073 12.0373 2.52006 11.344C2.67473 10.6453 2.7814 9.78933 2.84006 8.776C2.88273 8.04 2.9254 7.32 2.96806 6.616C3.01606 5.912 3.05873 5.23733 3.09606 4.592H11.0321C11.0321 5.22133 11.0321 5.832 11.0321 6.424C11.0321 7.016 11.0321 7.67733 11.0321 8.408V11.912C11.0321 12.6213 11.0321 13.2667 11.0321 13.848C11.0321 14.424 11.0321 15.024 11.0321 15.648H8.79206ZM0.256062 18.44C0.256062 18.088 0.256062 17.736 0.256062 17.384C0.256062 17.032 0.256062 16.68 0.256062 16.328C0.256062 15.9653 0.256062 15.5973 0.256062 15.224C0.256062 14.8507 0.256062 14.4827 0.256062 14.12C0.965395 14.12 1.68006 14.12 2.40006 14.12C3.1254 14.12 3.8294 14.12 4.51206 14.12H8.24006C8.92806 14.12 9.63206 14.12 10.3521 14.12C11.0774 14.12 11.7921 14.12 12.4961 14.12C12.4961 14.4827 12.4961 14.8507 12.4961 15.224C12.4961 15.5973 12.4961 15.9653 12.4961 16.328C12.4961 16.68 12.4961 17.032 12.4961 17.384C12.4961 17.736 12.4961 18.088 12.4961 18.44H10.6161L10.4881 15.648L10.9121 16H1.84006L2.26406 15.648L2.14406 18.44H0.256062ZM12.9173 16C12.9173 15.4187 12.9173 14.8613 12.9173 14.328C12.9173 13.7893 12.9173 13.1893 12.9173 12.528V11.728C12.9173 11.216 12.9173 10.7547 12.9173 10.344C12.9173 9.93333 12.9173 9.54133 12.9173 9.168C12.9173 8.79467 12.9173 8.416 12.9173 8.032L14.8773 7.976C14.8773 8.33333 14.8773 8.688 14.8773 9.04C14.8773 9.392 14.8773 9.76533 14.8773 10.16C14.8773 10.5493 14.8773 10.984 14.8773 11.464V13.224H15.0053L16.3253 10.96C16.6186 10.4693 16.9066 9.97867 17.1893 9.488C17.4773 8.992 17.76 8.50667 18.0373 8.032H20.1253C20.1253 8.416 20.1253 8.79467 20.1253 9.168C20.1253 9.54133 20.1253 9.93333 20.1253 10.344C20.1253 10.7547 20.1253 11.216 20.1253 11.728V12.528C20.1253 13.1893 20.1253 13.7893 20.1253 14.328C20.1253 14.8613 20.1253 15.4187 20.1253 16H18.1813C18.1813 15.4347 18.1813 14.888 18.1813 14.36C18.1813 13.8267 18.1813 13.2373 18.1813 12.592V10.8H18.0373L16.7413 13.032C16.4533 13.5333 16.1653 14.032 15.8773 14.528C15.5893 15.024 15.3013 15.5147 15.0133 16H12.9173ZM23.8386 16.168C23.4759 16.168 23.1399 16.152 22.8306 16.12C22.5266 16.0933 22.2466 16.0533 21.9906 16C21.7399 15.9413 21.5159 15.88 21.3186 15.816C21.1212 15.752 20.9532 15.6853 20.8146 15.616L20.9426 13.896C21.1506 14.0027 21.3932 14.1013 21.6706 14.192C21.9532 14.2827 22.2599 14.3573 22.5906 14.416C22.9212 14.4693 23.2626 14.496 23.6146 14.496C24.0466 14.496 24.3879 14.456 24.6386 14.376C24.8946 14.2907 25.0759 14.1813 25.1826 14.048C25.2946 13.9093 25.3506 13.7573 25.3506 13.592C25.3506 13.4 25.2839 13.2347 25.1506 13.096C25.0226 12.9573 24.8439 12.8533 24.6146 12.784C24.3852 12.7093 24.1159 12.672 23.8066 12.672C23.4919 12.672 23.2092 12.672 22.9586 12.672C22.7132 12.672 22.4706 12.672 22.2306 12.672V11.296C22.4439 11.296 22.6626 11.296 22.8866 11.296C23.1159 11.296 23.3772 11.296 23.6706 11.296C24.1612 11.296 24.5292 11.2107 24.7746 11.04C25.0252 10.864 25.1506 10.6347 25.1506 10.352C25.1506 10.1707 25.0892 10.0187 24.9666 9.896C24.8439 9.768 24.6679 9.67467 24.4386 9.616C24.2092 9.552 23.9319 9.52 23.6066 9.52C23.3452 9.52 23.0812 9.53867 22.8146 9.576C22.5479 9.608 22.2706 9.66667 21.9826 9.752C21.6999 9.83733 21.4012 9.952 21.0866 10.096L20.9266 8.392C21.1559 8.29067 21.4306 8.2 21.7506 8.12C22.0759 8.03467 22.4306 7.968 22.8146 7.92C23.2039 7.86667 23.5959 7.84 23.9906 7.84C24.7319 7.84 25.3399 7.928 25.8146 8.104C26.2892 8.28 26.6386 8.52267 26.8626 8.832C27.0866 9.14133 27.1986 9.496 27.1986 9.896C27.1986 10.4133 27.0652 10.8187 26.7986 11.112C26.5319 11.4053 26.2252 11.608 25.8786 11.72V11.888C26.1186 11.952 26.3532 12.056 26.5826 12.2C26.8172 12.344 27.0119 12.5467 27.1666 12.808C27.3212 13.064 27.3986 13.3893 27.3986 13.784C27.3986 14.2213 27.2919 14.6213 27.0786 14.984C26.8652 15.3413 26.4999 15.6293 25.9826 15.848C25.4652 16.0613 24.7506 16.168 23.8386 16.168ZM30.0514 16.184C29.6034 16.184 29.2034 16.0907 28.8514 15.904C28.4994 15.7173 28.2194 15.448 28.0114 15.096C27.8088 14.7387 27.7074 14.3093 27.7074 13.808C27.7074 13.3653 27.7848 12.992 27.9394 12.688C28.0941 12.3787 28.2968 12.128 28.5474 11.936C28.8034 11.7387 29.0834 11.5867 29.3874 11.48C29.6968 11.3733 30.0088 11.296 30.3234 11.248L32.6034 10.912C32.6194 10.5387 32.5554 10.2507 32.4114 10.048C32.2728 9.84533 32.0728 9.70667 31.8114 9.632C31.5501 9.552 31.2488 9.512 30.9074 9.512C30.7261 9.512 30.5288 9.528 30.3154 9.56C30.1074 9.58667 29.8861 9.62933 29.6514 9.688C29.4221 9.74667 29.1821 9.82133 28.9314 9.912C28.6808 9.99733 28.4248 10.1013 28.1634 10.224L28.0674 8.456C28.2648 8.38133 28.4861 8.30667 28.7314 8.232C28.9821 8.15733 29.2541 8.09067 29.5474 8.032C29.8408 7.968 30.1448 7.92 30.4594 7.888C30.7794 7.85067 31.1074 7.832 31.4434 7.832C32.0941 7.832 32.6488 7.928 33.1074 8.12C33.5714 8.30667 33.9261 8.608 34.1714 9.024C34.4168 9.43467 34.5394 9.97067 34.5394 10.632C34.5394 10.888 34.5394 11.2053 34.5394 11.584C34.5394 11.9627 34.5394 12.3093 34.5394 12.624V13.504C34.5394 13.8933 34.5394 14.2907 34.5394 14.696C34.5394 15.096 34.5394 15.5307 34.5394 16H32.7394L32.6194 14.96H32.4514C32.3021 15.1573 32.1154 15.3493 31.8914 15.536C31.6674 15.7173 31.4008 15.872 31.0914 16C30.7874 16.1227 30.4408 16.184 30.0514 16.184ZM30.7874 14.592C31.0114 14.592 31.2328 14.5387 31.4514 14.432C31.6701 14.3253 31.8728 14.176 32.0594 13.984C32.2514 13.792 32.4141 13.5627 32.5474 13.296V12.04C32.4781 12.088 32.3848 12.1333 32.2674 12.176C32.1554 12.2133 31.9874 12.256 31.7634 12.304C31.5394 12.352 31.2248 12.4133 30.8194 12.488C30.5901 12.5307 30.3954 12.6027 30.2354 12.704C30.0808 12.8053 29.9608 12.936 29.8754 13.096C29.7901 13.256 29.7474 13.44 29.7474 13.648C29.7474 13.9947 29.8514 14.24 30.0594 14.384C30.2728 14.5227 30.5154 14.592 30.7874 14.592ZM35.4436 16C35.4436 15.4187 35.4436 14.8613 35.4436 14.328C35.4436 13.7893 35.4436 13.1893 35.4436 12.528V11.728C35.4436 11.216 35.4436 10.7547 35.4436 10.344C35.4436 9.93333 35.4436 9.54133 35.4436 9.168C35.4436 8.79467 35.4436 8.416 35.4436 8.032L37.4036 7.976C37.4036 8.33333 37.4036 8.688 37.4036 9.04C37.4036 9.392 37.4036 9.76533 37.4036 10.16C37.4036 10.5493 37.4036 10.984 37.4036 11.464V13.224H37.5316L38.8516 10.96C39.1449 10.4693 39.4329 9.97867 39.7156 9.488C40.0036 8.992 40.2862 8.50667 40.5636 8.032H42.6516C42.6516 8.416 42.6516 8.79467 42.6516 9.168C42.6516 9.54133 42.6516 9.93333 42.6516 10.344C42.6516 10.7547 42.6516 11.216 42.6516 11.728V12.528C42.6516 13.1893 42.6516 13.7893 42.6516 14.328C42.6516 14.8613 42.6516 15.4187 42.6516 16H40.7076C40.7076 15.4347 40.7076 14.888 40.7076 14.36C40.7076 13.8267 40.7076 13.2373 40.7076 12.592V10.8H40.5636L39.2676 13.032C38.9796 13.5333 38.6916 14.032 38.4036 14.528C38.1156 15.024 37.8276 15.5147 37.5396 16H35.4436ZM39.0436 7.016C38.0302 7.016 37.2782 6.77067 36.7876 6.28C36.3022 5.784 36.0569 5.096 36.0516 4.216L37.6916 4.152C37.6916 4.664 37.7956 5.06667 38.0036 5.36C38.2116 5.648 38.5582 5.792 39.0436 5.792C39.3742 5.792 39.6382 5.728 39.8356 5.6C40.0382 5.472 40.1822 5.29067 40.2676 5.056C40.3582 4.816 40.4036 4.536 40.4036 4.216H42.0436C42.0382 5.096 41.7956 5.784 41.3156 6.28C40.8356 6.77067 40.0782 7.016 39.0436 7.016ZM43.7648 16C43.7648 15.424 43.7648 14.8667 43.7648 14.328C43.7648 13.7893 43.7648 13.1893 43.7648 12.528V11.728C43.7648 11.216 43.7648 10.7547 43.7648 10.344C43.7648 9.928 43.7648 9.536 43.7648 9.168C43.7648 8.79467 43.7648 8.416 43.7648 8.032L45.7728 7.968C45.7728 8.352 45.7728 8.736 45.7728 9.12C45.7728 9.49867 45.7728 9.89867 45.7728 10.32C45.7728 10.736 45.7728 11.2053 45.7728 11.728V12.528C45.7728 13.1893 45.7728 13.7893 45.7728 14.328C45.7728 14.8667 45.7728 15.424 45.7728 16H43.7648ZM44.9808 12.792V11.2H49.7328V12.792H44.9808ZM48.8928 16C48.8928 15.424 48.8928 14.8667 48.8928 14.328C48.8928 13.7893 48.8928 13.1893 48.8928 12.528V11.728C48.8928 11.216 48.8928 10.7547 48.8928 10.344C48.8928 9.928 48.8928 9.536 48.8928 9.168C48.8928 8.79467 48.8928 8.416 48.8928 8.032H50.9008C50.9008 8.416 50.9008 8.79467 50.9008 9.168C50.9008 9.536 50.9008 9.928 50.9008 10.344C50.9008 10.7547 50.9008 11.216 50.9008 11.728V12.528C50.9008 13.1893 50.9008 13.7893 50.9008 14.328C50.9008 14.8667 50.9008 15.424 50.9008 16H48.8928Z" fill="white"/>
<path d="M26 28V60" stroke="#FAFAFA"/>
<path d="M98.4447 16C97.8847 16 97.3647 16 96.8847 16C96.4047 16 95.9701 16 95.5807 16C95.1967 16 94.8661 16 94.5887 16C94.5887 15.3813 94.5887 14.7813 94.5887 14.2C94.5887 13.6187 94.5887 12.9733 94.5887 12.264V8.4C94.5887 7.67467 94.5887 7.016 94.5887 6.424C94.5887 5.832 94.5887 5.22133 94.5887 4.592C95.2181 4.592 95.9221 4.592 96.7007 4.592C97.4794 4.592 98.2661 4.592 99.0607 4.592C99.8021 4.592 100.426 4.656 100.933 4.784C101.439 4.90667 101.845 5.08533 102.149 5.32C102.458 5.54933 102.679 5.82667 102.813 6.152C102.951 6.472 103.021 6.83467 103.021 7.24C103.021 7.72533 102.93 8.14933 102.749 8.512C102.567 8.86933 102.322 9.16533 102.013 9.4C101.703 9.62933 101.354 9.79733 100.965 9.904V10.088C101.397 10.1787 101.789 10.3307 102.141 10.544C102.493 10.752 102.77 11.0427 102.973 11.416C103.181 11.784 103.285 12.2533 103.285 12.824C103.285 13.2933 103.207 13.7227 103.053 14.112C102.903 14.496 102.647 14.8293 102.285 15.112C101.922 15.3947 101.429 15.6133 100.805 15.768C100.181 15.9227 99.3941 16 98.4447 16ZM96.7807 14.232H98.6367C99.1861 14.232 99.6314 14.1707 99.9727 14.048C100.319 13.92 100.573 13.7387 100.733 13.504C100.893 13.264 100.973 12.9733 100.973 12.632C100.973 12.0987 100.783 11.7093 100.405 11.464C100.031 11.2187 99.4954 11.096 98.7967 11.096H96.2607V9.408H98.7167C99.1754 9.408 99.5514 9.33867 99.8447 9.2C100.143 9.056 100.362 8.864 100.501 8.624C100.639 8.384 100.709 8.112 100.709 7.808C100.709 7.32267 100.557 6.96 100.253 6.72C99.9541 6.47467 99.5007 6.352 98.8927 6.352H96.7807C96.7807 6.74667 96.7807 7.14667 96.7807 7.552C96.7807 7.95733 96.7807 8.41067 96.7807 8.912V11.784C96.7807 12.2587 96.7807 12.6907 96.7807 13.08C96.7807 13.464 96.7807 13.848 96.7807 14.232ZM107.88 16.2C106.878 16.2 106.056 16.0187 105.416 15.656C104.776 15.2933 104.304 14.7947 104 14.16C103.696 13.5253 103.544 12.8 103.544 11.984C103.544 11.1733 103.688 10.456 103.976 9.832C104.27 9.20267 104.699 8.712 105.264 8.36C105.83 8.008 106.523 7.832 107.344 7.832C108.054 7.832 108.659 7.96267 109.16 8.224C109.667 8.48 110.056 8.86667 110.328 9.384C110.6 9.896 110.736 10.5413 110.736 11.32C110.736 11.528 110.731 11.7147 110.72 11.88C110.715 12.0453 110.699 12.208 110.672 12.368L108.904 11.656C108.915 11.5813 108.923 11.5067 108.928 11.432C108.934 11.352 108.936 11.2773 108.936 11.208C108.936 10.6213 108.79 10.1627 108.496 9.832C108.203 9.496 107.824 9.328 107.36 9.328C107.008 9.328 106.699 9.42933 106.432 9.632C106.166 9.82933 105.955 10.1067 105.8 10.464C105.646 10.8213 105.568 11.2347 105.568 11.704V12.016C105.568 12.5333 105.659 12.9787 105.84 13.352C106.022 13.72 106.302 14.0053 106.68 14.208C107.059 14.4053 107.536 14.504 108.112 14.504C108.336 14.504 108.587 14.4853 108.864 14.448C109.147 14.4053 109.432 14.3413 109.72 14.256C110.008 14.1707 110.278 14.0613 110.528 13.928L110.592 15.672C110.39 15.7733 110.152 15.864 109.88 15.944C109.608 16.024 109.304 16.0853 108.968 16.128C108.632 16.176 108.27 16.2 107.88 16.2ZM104.344 12.368V11.096L109.472 11.008L110.672 11.464V12.368H104.344ZM111.414 19.136C111.414 18.56 111.414 17.992 111.414 17.432C111.414 16.872 111.414 16.2613 111.414 15.6V11.728C111.414 11.1253 111.414 10.5147 111.414 9.896C111.414 9.27733 111.414 8.656 111.414 8.032L113.23 7.928L113.286 9H113.462C113.622 8.76533 113.817 8.56 114.046 8.384C114.281 8.20267 114.547 8.064 114.846 7.968C115.145 7.872 115.473 7.824 115.83 7.824C116.539 7.824 117.139 8.008 117.63 8.376C118.121 8.73867 118.491 9.23733 118.742 9.872C118.993 10.5013 119.118 11.2107 119.118 12C119.118 12.7413 119.001 13.432 118.766 14.072C118.531 14.712 118.171 15.2267 117.686 15.616C117.201 16.0053 116.59 16.2 115.854 16.2C115.518 16.2 115.211 16.1547 114.934 16.064C114.662 15.9787 114.414 15.8533 114.19 15.688C113.966 15.5227 113.763 15.3227 113.582 15.088H113.446V15.704C113.446 16.312 113.446 16.88 113.446 17.408C113.446 17.9413 113.446 18.496 113.446 19.072L111.414 19.136ZM115.118 14.448C115.561 14.448 115.923 14.3333 116.206 14.104C116.494 13.8693 116.705 13.568 116.838 13.2C116.971 12.832 117.038 12.4373 117.038 12.016C117.038 11.5733 116.966 11.1707 116.822 10.808C116.683 10.44 116.47 10.1467 116.182 9.928C115.899 9.704 115.539 9.592 115.102 9.592C114.883 9.592 114.673 9.62667 114.47 9.696C114.267 9.76 114.078 9.856 113.902 9.984C113.726 10.1067 113.574 10.2587 113.446 10.44V13.424C113.569 13.632 113.71 13.8133 113.87 13.968C114.03 14.1227 114.214 14.2427 114.422 14.328C114.63 14.408 114.862 14.448 115.118 14.448ZM123.621 16.168C122.73 16.168 121.973 15.9893 121.349 15.632C120.73 15.2693 120.258 14.776 119.933 14.152C119.613 13.528 119.453 12.8187 119.453 12.024C119.453 11.224 119.605 10.5093 119.909 9.88C120.213 9.24533 120.661 8.74667 121.253 8.384C121.85 8.016 122.589 7.832 123.469 7.832C123.783 7.832 124.095 7.856 124.405 7.904C124.714 7.952 125.005 8.02133 125.277 8.112C125.554 8.19733 125.799 8.29867 126.013 8.416L125.853 10.192C125.549 10.0213 125.269 9.89067 125.013 9.8C124.762 9.70933 124.53 9.648 124.317 9.616C124.103 9.584 123.911 9.568 123.741 9.568C123.069 9.568 122.53 9.784 122.125 10.216C121.725 10.648 121.525 11.232 121.525 11.968C121.525 12.4533 121.621 12.8853 121.813 13.264C122.005 13.6373 122.287 13.9333 122.661 14.152C123.039 14.3653 123.509 14.472 124.069 14.472C124.277 14.472 124.485 14.4533 124.693 14.416C124.901 14.3787 125.106 14.3227 125.309 14.248C125.511 14.168 125.706 14.0667 125.893 13.944L126.013 15.72C125.831 15.8053 125.621 15.8827 125.381 15.952C125.146 16.016 124.882 16.0667 124.589 16.104C124.295 16.1467 123.973 16.168 123.621 16.168ZM128.473 16C128.473 15.424 128.473 14.8667 128.473 14.328C128.473 13.7893 128.473 13.1893 128.473 12.528V11.728C128.473 11.2587 128.473 10.8373 128.473 10.464C128.473 10.0907 128.473 9.736 128.473 9.4C128.473 9.064 128.473 8.71467 128.473 8.352L129.121 9.64H128.777C128.329 9.64 127.865 9.64 127.385 9.64C126.91 9.64 126.441 9.64 125.977 9.64V8.032H132.993V9.64C132.534 9.64 132.065 9.64 131.585 9.64C131.11 9.64 130.646 9.64 130.193 9.64H129.857L130.505 8.352C130.505 8.71467 130.505 9.064 130.505 9.4C130.505 9.736 130.505 10.0907 130.505 10.464C130.505 10.8373 130.505 11.2587 130.505 11.728V12.528C130.505 13.1893 130.505 13.7893 130.505 14.328C130.505 14.8667 130.505 15.424 130.505 16H128.473ZM133.378 16C133.378 15.424 133.378 14.8667 133.378 14.328C133.378 13.7893 133.378 13.1893 133.378 12.528V11.648C133.378 11.136 133.378 10.68 133.378 10.28C133.378 9.88 133.378 9.50133 133.378 9.144C133.378 8.78667 133.378 8.416 133.378 8.032L135.41 7.968C135.41 8.53867 135.41 9.104 135.41 9.664C135.41 10.2187 135.41 10.8 135.41 11.408V12.912C135.41 13.4667 135.41 13.9893 135.41 14.48C135.41 14.9653 135.41 15.472 135.41 16H133.378ZM138.538 16C138.266 15.6587 137.988 15.32 137.706 14.984C137.428 14.6427 137.148 14.3067 136.866 13.976L135.81 12.696H135.226V11.32H135.866L136.778 10.16C137.06 9.808 137.34 9.45333 137.618 9.096C137.9 8.73867 138.18 8.384 138.458 8.032H140.85C140.444 8.50667 140.039 8.98133 139.634 9.456C139.228 9.93067 138.826 10.4027 138.426 10.872L137.226 12.272L137.138 11.352L138.586 13.12C139.002 13.6 139.415 14.0827 139.826 14.568C140.242 15.048 140.655 15.5253 141.066 16H138.538ZM143.331 16.184C142.883 16.184 142.483 16.0907 142.131 15.904C141.779 15.7173 141.499 15.448 141.291 15.096C141.088 14.7387 140.987 14.3093 140.987 13.808C140.987 13.3653 141.064 12.992 141.219 12.688C141.374 12.3787 141.576 12.128 141.827 11.936C142.083 11.7387 142.363 11.5867 142.667 11.48C142.976 11.3733 143.288 11.296 143.603 11.248L145.883 10.912C145.899 10.5387 145.835 10.2507 145.691 10.048C145.552 9.84533 145.352 9.70667 145.091 9.632C144.83 9.552 144.528 9.512 144.187 9.512C144.006 9.512 143.808 9.528 143.595 9.56C143.387 9.58667 143.166 9.62933 142.931 9.688C142.702 9.74667 142.462 9.82133 142.211 9.912C141.96 9.99733 141.704 10.1013 141.443 10.224L141.347 8.456C141.544 8.38133 141.766 8.30667 142.011 8.232C142.262 8.15733 142.534 8.09067 142.827 8.032C143.12 7.968 143.424 7.92 143.739 7.888C144.059 7.85067 144.387 7.832 144.723 7.832C145.374 7.832 145.928 7.928 146.387 8.12C146.851 8.30667 147.206 8.608 147.451 9.024C147.696 9.43467 147.819 9.97067 147.819 10.632C147.819 10.888 147.819 11.2053 147.819 11.584C147.819 11.9627 147.819 12.3093 147.819 12.624V13.504C147.819 13.8933 147.819 14.2907 147.819 14.696C147.819 15.096 147.819 15.5307 147.819 16H146.019L145.899 14.96H145.731C145.582 15.1573 145.395 15.3493 145.171 15.536C144.947 15.7173 144.68 15.872 144.371 16C144.067 16.1227 143.72 16.184 143.331 16.184ZM144.067 14.592C144.291 14.592 144.512 14.5387 144.731 14.432C144.95 14.3253 145.152 14.176 145.339 13.984C145.531 13.792 145.694 13.5627 145.827 13.296V12.04C145.758 12.088 145.664 12.1333 145.547 12.176C145.435 12.2133 145.267 12.256 145.043 12.304C144.819 12.352 144.504 12.4133 144.099 12.488C143.87 12.5307 143.675 12.6027 143.515 12.704C143.36 12.8053 143.24 12.936 143.155 13.096C143.07 13.256 143.027 13.44 143.027 13.648C143.027 13.9947 143.131 14.24 143.339 14.384C143.552 14.5227 143.795 14.592 144.067 14.592Z" fill="white"/>
<path d="M121 28V60" stroke="#FAFAFA"/>
<path d="M198.523 7.864H193.659V17H191.339V5.8H200.843V17H198.523V7.864ZM204.218 20.52H202.138V9.64H204.218V20.52ZM210.266 13.32C210.266 14.152 210.101 14.8613 209.77 15.448C209.439 16.0347 209.002 16.4773 208.458 16.776C207.925 17.0747 207.349 17.224 206.73 17.224C206.101 17.224 205.551 17.064 205.082 16.744C204.623 16.424 204.266 15.9707 204.01 15.384C203.765 14.7973 203.642 14.1093 203.642 13.32C203.642 12.52 203.765 11.832 204.01 11.256C204.266 10.6693 204.623 10.216 205.082 9.896C205.551 9.576 206.101 9.416 206.73 9.416C207.349 9.416 207.925 9.56533 208.458 9.864C209.002 10.1627 209.439 10.6053 209.77 11.192C210.101 11.768 210.266 12.4773 210.266 13.32ZM208.122 13.32C208.122 12.8827 208.031 12.5093 207.85 12.2C207.669 11.8907 207.423 11.656 207.114 11.496C206.815 11.336 206.485 11.256 206.122 11.256C205.813 11.256 205.509 11.336 205.21 11.496C204.922 11.6453 204.682 11.8747 204.49 12.184C204.309 12.4933 204.218 12.872 204.218 13.32C204.218 13.768 204.309 14.1467 204.49 14.456C204.682 14.7653 204.922 15 205.21 15.16C205.509 15.3093 205.813 15.384 206.122 15.384C206.485 15.384 206.815 15.304 207.114 15.144C207.423 14.984 207.669 14.7493 207.85 14.44C208.031 14.1307 208.122 13.7573 208.122 13.32ZM210.355 13.32C210.355 12.552 210.531 11.88 210.883 11.304C211.246 10.728 211.731 10.28 212.339 9.96C212.958 9.64 213.656 9.48 214.435 9.48C215.214 9.48 215.907 9.64 216.515 9.96C217.134 10.28 217.619 10.728 217.971 11.304C218.334 11.88 218.515 12.552 218.515 13.32C218.515 14.0773 218.334 14.7493 217.971 15.336C217.619 15.912 217.134 16.36 216.515 16.68C215.907 17 215.214 17.16 214.435 17.16C213.656 17.16 212.958 17 212.339 16.68C211.731 16.36 211.246 15.912 210.883 15.336C210.531 14.7493 210.355 14.0773 210.355 13.32ZM212.467 13.32C212.467 13.736 212.552 14.104 212.723 14.424C212.904 14.7333 213.144 14.9787 213.443 15.16C213.742 15.3307 214.072 15.416 214.435 15.416C214.798 15.416 215.128 15.3307 215.427 15.16C215.726 14.9787 215.96 14.7333 216.131 14.424C216.312 14.104 216.403 13.736 216.403 13.32C216.403 12.904 216.312 12.536 216.131 12.216C215.96 11.896 215.726 11.6507 215.427 11.48C215.128 11.3093 214.798 11.224 214.435 11.224C214.072 11.224 213.742 11.3093 213.443 11.48C213.144 11.6507 212.904 11.896 212.723 12.216C212.552 12.536 212.467 12.904 212.467 13.32ZM219.158 9.64H223.622V11.384H221.19V17H219.158V9.64ZM225.76 20.52H223.68V9.64H225.76V20.52ZM231.808 13.32C231.808 14.152 231.642 14.8613 231.312 15.448C230.981 16.0347 230.544 16.4773 230 16.776C229.466 17.0747 228.89 17.224 228.272 17.224C227.642 17.224 227.093 17.064 226.624 16.744C226.165 16.424 225.808 15.9707 225.552 15.384C225.306 14.7973 225.184 14.1093 225.184 13.32C225.184 12.52 225.306 11.832 225.552 11.256C225.808 10.6693 226.165 10.216 226.624 9.896C227.093 9.576 227.642 9.416 228.272 9.416C228.89 9.416 229.466 9.56533 230 9.864C230.544 10.1627 230.981 10.6053 231.312 11.192C231.642 11.768 231.808 12.4773 231.808 13.32ZM229.664 13.32C229.664 12.8827 229.573 12.5093 229.392 12.2C229.21 11.8907 228.965 11.656 228.656 11.496C228.357 11.336 228.026 11.256 227.664 11.256C227.354 11.256 227.05 11.336 226.752 11.496C226.464 11.6453 226.224 11.8747 226.032 12.184C225.85 12.4933 225.76 12.872 225.76 13.32C225.76 13.768 225.85 14.1467 226.032 14.456C226.224 14.7653 226.464 15 226.752 15.16C227.05 15.3093 227.354 15.384 227.664 15.384C228.026 15.384 228.357 15.304 228.656 15.144C228.965 14.984 229.21 14.7493 229.392 14.44C229.573 14.1307 229.664 13.7573 229.664 13.32ZM233.865 14.808C233.865 15.0107 233.918 15.1813 234.025 15.32C234.131 15.448 234.275 15.5493 234.457 15.624C234.649 15.688 234.857 15.72 235.081 15.72C235.411 15.72 235.715 15.6667 235.993 15.56C236.27 15.4533 236.489 15.2773 236.649 15.032C236.809 14.7867 236.889 14.4613 236.889 14.056L237.145 14.92C237.145 15.3893 237.022 15.7947 236.777 16.136C236.531 16.4667 236.201 16.7227 235.785 16.904C235.379 17.0747 234.921 17.16 234.409 17.16C233.907 17.16 233.459 17.0747 233.065 16.904C232.67 16.7333 232.355 16.4827 232.121 16.152C231.897 15.8107 231.785 15.3947 231.785 14.904C231.785 14.4027 231.913 13.976 232.169 13.624C232.435 13.2613 232.803 12.984 233.273 12.792C233.753 12.6 234.313 12.504 234.953 12.504C235.347 12.504 235.715 12.552 236.057 12.648C236.398 12.744 236.686 12.856 236.921 12.984C237.155 13.112 237.321 13.2347 237.417 13.352V14.36C237.118 14.136 236.809 13.9707 236.489 13.864C236.169 13.7573 235.79 13.704 235.353 13.704C235.033 13.704 234.761 13.752 234.537 13.848C234.313 13.944 234.142 14.072 234.025 14.232C233.918 14.392 233.865 14.584 233.865 14.808ZM233.209 11.736L232.457 10.312C232.83 10.1093 233.289 9.91733 233.833 9.736C234.377 9.544 234.979 9.448 235.641 9.448C236.281 9.448 236.841 9.53867 237.321 9.72C237.811 9.90133 238.195 10.168 238.473 10.52C238.75 10.8613 238.889 11.2827 238.889 11.784V17H236.889V12.12C236.889 11.7893 236.761 11.5333 236.505 11.352C236.249 11.16 235.918 11.064 235.513 11.064C235.161 11.064 234.83 11.1067 234.521 11.192C234.222 11.2667 233.955 11.3573 233.721 11.464C233.497 11.5707 233.326 11.6613 233.209 11.736ZM246.879 17L245.823 11.704L246.879 9.08L249.007 17H246.879ZM243.455 15.208L246.879 9.08L247.039 12.12L243.935 17.496L243.455 15.208ZM243.935 17.496L240.879 12.12L241.039 9.08L244.415 15.208L243.935 17.496ZM238.911 17L241.039 9.08L242.095 11.704L241.039 17H238.911ZM256.169 17L255.113 11.704L256.169 9.08L258.297 17H256.169ZM252.745 15.208L256.169 9.08L256.329 12.12L253.225 17.496L252.745 15.208ZM253.225 17.496L250.169 12.12L250.329 9.08L253.705 15.208L253.225 17.496ZM248.201 17L250.329 9.08L251.385 11.704L250.329 17H248.201ZM265.491 11.464L258.483 17.56L258.563 15.176L265.571 9.08L265.491 11.464ZM260.483 9.64V15.464L258.483 17.56V9.64H260.483ZM265.571 9.08V17H263.571V11.176L265.571 9.08ZM268.741 20.52H266.661V9.64H268.741V20.52ZM274.789 13.32C274.789 14.152 274.624 14.8613 274.293 15.448C273.962 16.0347 273.525 16.4773 272.981 16.776C272.448 17.0747 271.872 17.224 271.253 17.224C270.624 17.224 270.074 17.064 269.605 16.744C269.146 16.424 268.789 15.9707 268.533 15.384C268.288 14.7973 268.165 14.1093 268.165 13.32C268.165 12.52 268.288 11.832 268.533 11.256C268.789 10.6693 269.146 10.216 269.605 9.896C270.074 9.576 270.624 9.416 271.253 9.416C271.872 9.416 272.448 9.56533 272.981 9.864C273.525 10.1627 273.962 10.6053 274.293 11.192C274.624 11.768 274.789 12.4773 274.789 13.32ZM272.645 13.32C272.645 12.8827 272.554 12.5093 272.373 12.2C272.192 11.8907 271.946 11.656 271.637 11.496C271.338 11.336 271.008 11.256 270.645 11.256C270.336 11.256 270.032 11.336 269.733 11.496C269.445 11.6453 269.205 11.8747 269.013 12.184C268.832 12.4933 268.741 12.872 268.741 13.32C268.741 13.768 268.832 14.1467 269.013 14.456C269.205 14.7653 269.445 15 269.733 15.16C270.032 15.3093 270.336 15.384 270.645 15.384C271.008 15.384 271.338 15.304 271.637 15.144C271.946 14.984 272.192 14.7493 272.373 14.44C272.554 14.1307 272.645 13.7573 272.645 13.32ZM274.878 13.32C274.878 12.552 275.054 11.88 275.406 11.304C275.769 10.728 276.254 10.28 276.862 9.96C277.481 9.64 278.179 9.48 278.958 9.48C279.737 9.48 280.43 9.64 281.038 9.96C281.657 10.28 282.142 10.728 282.494 11.304C282.857 11.88 283.038 12.552 283.038 13.32C283.038 14.0773 282.857 14.7493 282.494 15.336C282.142 15.912 281.657 16.36 281.038 16.68C280.43 17 279.737 17.16 278.958 17.16C278.179 17.16 277.481 17 276.862 16.68C276.254 16.36 275.769 15.912 275.406 15.336C275.054 14.7493 274.878 14.0773 274.878 13.32ZM276.99 13.32C276.99 13.736 277.075 14.104 277.246 14.424C277.427 14.7333 277.667 14.9787 277.966 15.16C278.265 15.3307 278.595 15.416 278.958 15.416C279.321 15.416 279.651 15.3307 279.95 15.16C280.249 14.9787 280.483 14.7333 280.654 14.424C280.835 14.104 280.926 13.736 280.926 13.32C280.926 12.904 280.835 12.536 280.654 12.216C280.483 11.896 280.249 11.6507 279.95 11.48C279.651 11.3093 279.321 11.224 278.958 11.224C278.595 11.224 278.265 11.3093 277.966 11.48C277.667 11.6507 277.427 11.896 277.246 12.216C277.075 12.536 276.99 12.904 276.99 13.32ZM285.009 13.16H287.473C287.985 13.16 288.443 13.2133 288.849 13.32C289.254 13.4267 289.574 13.6133 289.809 13.88C290.043 14.1467 290.161 14.52 290.161 15C290.161 15.5547 289.974 16.0293 289.601 16.424C289.238 16.808 288.635 17 287.793 17H285.009V15.608H287.137C287.51 15.608 287.777 15.5227 287.937 15.352C288.107 15.1813 288.193 14.9893 288.193 14.776C288.193 14.6587 288.171 14.5573 288.129 14.472C288.086 14.376 288.022 14.2907 287.937 14.216C287.862 14.1307 287.755 14.072 287.617 14.04C287.489 13.9973 287.329 13.976 287.137 13.976H285.009V13.16ZM285.009 13.48V12.584H286.977C287.115 12.584 287.238 12.568 287.345 12.536C287.462 12.4933 287.558 12.4347 287.633 12.36C287.707 12.2853 287.766 12.2 287.809 12.104C287.851 12.008 287.873 11.9067 287.873 11.8C287.873 11.5867 287.793 11.4053 287.633 11.256C287.473 11.1067 287.254 11.032 286.977 11.032H285.009V9.64H287.313C287.771 9.64 288.187 9.70933 288.561 9.848C288.945 9.976 289.254 10.1893 289.489 10.488C289.723 10.776 289.841 11.16 289.841 11.64C289.841 12.056 289.723 12.4027 289.489 12.68C289.254 12.9467 288.945 13.1493 288.561 13.288C288.187 13.416 287.771 13.48 287.313 13.48H285.009ZM283.809 9.64H285.809V17H283.809V9.64ZM292.176 14.808C292.176 15.0107 292.229 15.1813 292.336 15.32C292.443 15.448 292.587 15.5493 292.768 15.624C292.96 15.688 293.168 15.72 293.392 15.72C293.723 15.72 294.027 15.6667 294.304 15.56C294.581 15.4533 294.8 15.2773 294.96 15.032C295.12 14.7867 295.2 14.4613 295.2 14.056L295.456 14.92C295.456 15.3893 295.333 15.7947 295.088 16.136C294.843 16.4667 294.512 16.7227 294.096 16.904C293.691 17.0747 293.232 17.16 292.72 17.16C292.219 17.16 291.771 17.0747 291.376 16.904C290.981 16.7333 290.667 16.4827 290.432 16.152C290.208 15.8107 290.096 15.3947 290.096 14.904C290.096 14.4027 290.224 13.976 290.48 13.624C290.747 13.2613 291.115 12.984 291.584 12.792C292.064 12.6 292.624 12.504 293.264 12.504C293.659 12.504 294.027 12.552 294.368 12.648C294.709 12.744 294.997 12.856 295.232 12.984C295.467 13.112 295.632 13.2347 295.728 13.352V14.36C295.429 14.136 295.12 13.9707 294.8 13.864C294.48 13.7573 294.101 13.704 293.664 13.704C293.344 13.704 293.072 13.752 292.848 13.848C292.624 13.944 292.453 14.072 292.336 14.232C292.229 14.392 292.176 14.584 292.176 14.808ZM291.52 11.736L290.768 10.312C291.141 10.1093 291.6 9.91733 292.144 9.736C292.688 9.544 293.291 9.448 293.952 9.448C294.592 9.448 295.152 9.53867 295.632 9.72C296.123 9.90133 296.507 10.168 296.784 10.52C297.061 10.8613 297.2 11.2827 297.2 11.784V17H295.2V12.12C295.2 11.7893 295.072 11.5333 294.816 11.352C294.56 11.16 294.229 11.064 293.824 11.064C293.472 11.064 293.141 11.1067 292.832 11.192C292.533 11.2667 292.267 11.3573 292.032 11.464C291.808 11.5707 291.637 11.6613 291.52 11.736ZM298.918 13.928V12.312H304.71V13.928H298.918ZM303.702 9.64H305.702V17H303.702V9.64ZM298.166 9.64H300.166V17H298.166V9.64ZM313.84 11.464L306.832 17.56L306.912 15.176L313.92 9.08L313.84 11.464ZM308.832 9.64V15.464L306.832 17.56V9.64H308.832ZM313.92 9.08V17H311.92V11.176L313.92 9.08ZM315.746 13.784V12.504H320.146C320.104 12.184 320.018 11.9067 319.89 11.672C319.762 11.4373 319.586 11.256 319.362 11.128C319.138 11 318.856 10.936 318.514 10.936C318.162 10.936 317.848 11.016 317.57 11.176C317.293 11.3253 317.074 11.5493 316.914 11.848C316.754 12.1467 316.674 12.4987 316.674 12.904L316.642 13.32C316.642 13.8427 316.722 14.2747 316.882 14.616C317.053 14.9467 317.282 15.192 317.57 15.352C317.858 15.5013 318.184 15.576 318.546 15.576C318.866 15.576 319.149 15.5333 319.394 15.448C319.64 15.3627 319.858 15.24 320.05 15.08C320.242 14.92 320.402 14.7333 320.53 14.52L322.338 15.08C322.093 15.496 321.805 15.864 321.474 16.184C321.144 16.4933 320.738 16.7333 320.258 16.904C319.789 17.0747 319.213 17.16 318.53 17.16C317.709 17.16 317 16.9947 316.402 16.664C315.805 16.3333 315.346 15.88 315.026 15.304C314.717 14.7173 314.562 14.056 314.562 13.32C314.562 13.1813 314.568 13.048 314.578 12.92C314.589 12.792 314.605 12.664 314.626 12.536C314.733 11.928 314.952 11.3947 315.282 10.936C315.613 10.4773 316.056 10.12 316.61 9.864C317.165 9.608 317.81 9.48 318.546 9.48C319.357 9.48 320.045 9.63467 320.61 9.944C321.186 10.2427 321.624 10.6693 321.922 11.224C322.221 11.7787 322.37 12.4453 322.37 13.224C322.37 13.288 322.37 13.368 322.37 13.464C322.37 13.56 322.36 13.6667 322.338 13.784H315.746Z" fill="white"/>
<path d="M256.5 31V63" stroke="#FAFAFA"/>
</svg>
