<svg width="803" height="532" viewBox="0 0 803 532" fill="none" xmlns="http://www.w3.org/2000/svg">
<path d="M28.2073 260.938C136.165 270.099 205.133 304.385 249.307 336.138C286.133 362.611 290.784 376.59 325.963 394.011C402.302 431.813 523.868 437.036 558.769 374.153C575.961 343.177 555.656 316.653 547.518 257.276C540.199 203.862 543.52 126.35 595.903 27.3591" stroke="url(#paint0_linear_43_468)" stroke-miterlimit="10"/>
<path d="M32.915 272.978C136.325 277.614 203.682 309.094 246.869 338.232C283.21 362.758 289.904 374.937 326.52 391.427C403.335 426.019 517.744 431.669 553.871 371.936C572.48 341.17 555.754 314.136 549.796 254.307C544.551 201.634 548.896 125.152 600.143 27.2808" stroke="url(#paint1_linear_43_468)" stroke-miterlimit="10"/>
<path d="M37.6172 285.006C136.482 285.124 202.273 313.801 244.437 340.323C280.356 362.918 288.98 373.3 327.084 388.842C404.268 420.325 511.817 426.341 548.985 369.718C569.063 339.128 555.825 311.66 552.081 251.339C548.864 199.433 554.278 123.956 604.397 27.2054" stroke="url(#paint2_linear_43_468)" stroke-miterlimit="10"/>
<path d="M42.3153 297.026C136.639 292.63 200.918 318.499 242.01 342.422C277.548 363.099 288.014 371.689 327.654 386.253C405.117 414.733 506.083 421.064 544.107 367.498C565.712 337.066 555.863 309.22 554.372 248.366C553.118 197.259 559.664 122.756 608.642 27.1243" stroke="url(#paint3_linear_43_468)" stroke-miterlimit="10"/>
<path d="M47.0072 309.036C136.801 300.123 199.621 323.178 239.577 344.502C274.796 363.295 287.025 370.105 328.208 383.674C405.869 409.252 500.512 415.855 539.217 365.285C562.406 334.989 555.843 306.815 556.646 245.401C557.305 195.109 565.034 121.559 612.879 27.054" stroke="url(#paint4_linear_43_468)" stroke-miterlimit="10"/>
<path d="M51.6922 321.037C136.945 307.619 198.385 327.838 237.148 346.59C272.109 363.504 285.983 368.564 328.77 381.092C406.566 403.875 495.115 410.714 534.338 363.074C559.172 332.908 555.77 304.438 558.928 242.433C561.441 192.973 570.409 120.36 617.118 26.9627" stroke="url(#paint5_linear_43_468)" stroke-miterlimit="10"/>
<path d="M56.3722 333.026C137.093 315.099 197.218 332.453 234.72 348.676C269.491 363.719 284.925 367.06 329.333 378.513C407.214 398.598 489.876 405.649 529.463 360.862C556.002 330.836 555.664 302.071 561.212 239.468C565.521 190.845 575.789 119.158 621.358 26.8794" stroke="url(#paint6_linear_43_468)" stroke-miterlimit="10"/>
<path d="M61.0533 345.007C137.25 322.587 196.132 337.022 232.299 350.76C266.953 363.925 283.858 365.597 329.902 375.934C407.827 393.42 484.787 400.662 524.598 358.65C552.906 328.78 555.497 299.721 563.501 236.5C569.542 188.725 581.155 117.964 625.598 26.7928" stroke="url(#paint7_linear_43_468)" stroke-miterlimit="10"/>
<path d="M65.7138 356.98C137.389 330.067 195.106 341.527 229.866 352.849C264.485 364.119 282.754 364.199 330.458 373.359C408.404 388.338 479.818 395.763 519.724 356.446C549.866 326.755 555.256 297.376 565.776 233.537C573.511 186.604 586.521 116.755 629.844 26.702" stroke="url(#paint8_linear_43_468)" stroke-miterlimit="10"/>
<path d="M70.3744 368.934C137.534 337.533 194.156 345.945 227.439 354.927C262.085 364.277 281.645 362.822 331.02 370.78C408.959 383.338 474.961 390.944 514.858 354.235C546.889 324.764 554.961 295.02 568.057 230.567C577.425 184.472 591.889 115.545 634.071 26.6091" stroke="url(#paint9_linear_43_468)" stroke-miterlimit="10"/>
<path d="M75.0318 380.891C137.686 345.002 193.277 350.278 225.018 357.015C259.77 364.392 280.537 361.516 331.586 368.21C409.514 378.43 470.213 386.222 510 352.038C543.987 322.836 554.603 292.664 570.342 227.609C581.292 182.344 597.256 114.345 638.31 26.5255" stroke="url(#paint10_linear_43_468)" stroke-miterlimit="10"/>
<path d="M79.6795 392.832C137.816 352.465 192.451 354.498 222.593 359.098C257.516 364.429 279.434 360.257 332.149 365.64C410.066 373.593 465.55 381.581 505.142 349.837C541.149 320.968 554.18 290.287 572.624 224.649C585.112 180.198 602.618 113.138 642.542 26.431" stroke="url(#paint11_linear_43_468)" stroke-miterlimit="10"/>
<path d="M84.3226 404.764C137.953 359.921 191.666 358.599 220.17 361.182C255.314 364.366 278.32 359.053 332.715 363.071C410.626 368.827 460.961 377.028 500.29 347.639C538.374 319.18 553.697 287.888 574.907 221.688C588.892 178.036 607.98 111.932 646.777 26.336" stroke="url(#paint12_linear_43_468)" stroke-miterlimit="10"/>
<path d="M88.9574 416.683C138.089 367.371 190.904 362.573 217.747 363.262C253.141 364.171 277.221 357.9 333.274 360.504C411.191 364.123 456.424 372.551 495.437 345.445C535.671 317.48 553.146 285.458 577.185 218.729C592.633 175.853 613.337 110.718 651.009 26.2445" stroke="url(#paint13_linear_43_468)" stroke-miterlimit="10"/>
<path d="M93.5861 428.592C138.221 374.814 190.141 366.421 215.318 365.345C250.961 363.819 276.127 356.799 333.837 357.939C411.776 359.478 451.938 368.174 490.588 343.252C533.027 315.887 552.539 282.993 579.463 215.765C596.332 173.646 618.689 109.508 655.231 26.1373" stroke="url(#paint14_linear_43_468)" stroke-miterlimit="10"/>
<path d="M98.2082 440.493C138.358 382.251 189.351 370.148 212.903 367.423C248.753 363.275 275.06 355.745 334.408 355.372C412.387 354.891 447.491 363.869 485.752 341.062C530.454 314.411 551.886 280.493 581.754 212.812C600.021 171.42 624.053 108.301 659.468 26.0423" stroke="url(#paint15_linear_43_468)" stroke-miterlimit="10"/>
<path d="M102.832 452.378C138.486 389.685 190.96 379.732 210.492 369.501C242.44 352.765 274.014 354.741 334.984 352.808C413.025 350.338 443.059 359.647 480.913 338.874C527.934 313.077 551.171 277.937 584.038 209.855C603.677 169.17 629.408 107.089 663.7 25.9467" stroke="url(#paint16_linear_43_468)" stroke-miterlimit="10"/>
<path d="M107.371 464.614C138.54 397.427 189.854 382.444 208.033 371.895C239.895 353.406 272.968 354.107 335.577 350.587C413.769 346.197 438.724 355.883 476.191 337.058C525.596 312.249 550.546 275.685 586.455 207.195C607.447 167.161 634.89 106.104 668.048 26.0118" stroke="url(#paint17_linear_43_468)" stroke-miterlimit="10"/>
<path d="M111.905 476.951C138.58 405.25 188.428 385.116 205.566 374.366C237.557 354.301 271.945 353.594 336.185 348.451C414.55 342.168 434.39 352.271 471.49 335.34C523.331 311.681 549.907 273.47 588.908 204.622C611.236 165.207 640.411 105.189 672.437 26.1429" stroke="url(#paint18_linear_43_468)" stroke-miterlimit="10"/>
<path d="M116.443 489.293C138.621 413.076 185.163 385.333 203.095 376.829C238.421 360.089 270.94 353.11 336.783 346.292C415.355 338.149 430.015 348.703 466.774 333.592C521.082 311.26 549.207 271.167 591.349 202.015C615.006 163.193 645.925 104.254 676.815 26.249" stroke="url(#paint19_linear_43_468)" stroke-miterlimit="10"/>
<path d="M120.983 501.64C138.659 420.901 183.779 389.171 200.615 379.288C235.232 358.969 269.947 352.658 337.37 344.124C416.177 334.144 425.585 345.188 462.041 331.832C518.849 311.023 548.469 268.816 593.781 199.412C618.758 161.154 651.432 103.321 681.192 26.3644" stroke="url(#paint20_linear_43_468)" stroke-miterlimit="10"/>
<path d="M125.528 513.992C138.699 428.724 182.231 393.053 198.132 381.736C231.775 357.782 268.976 352.232 337.955 341.94C417.027 330.142 421.092 341.711 457.3 330.054C516.612 310.951 547.685 266.384 596.209 196.787C622.503 159.078 656.936 102.371 685.565 26.4647" stroke="url(#paint21_linear_43_468)" stroke-miterlimit="10"/>
<defs>
<linearGradient id="paint0_linear_43_468" x1="301.83" y1="116.299" x2="401.39" y2="445.484" gradientUnits="userSpaceOnUse">
<stop stop-color="#FF8682"/>
<stop offset="1" stop-color="#A7AFBF" stop-opacity="0.19"/>
</linearGradient>
<linearGradient id="paint1_linear_43_468" x1="304.287" y1="116.782" x2="401.983" y2="439.727" gradientUnits="userSpaceOnUse">
<stop stop-color="#FF8682"/>
<stop offset="1" stop-color="#A7AFBF" stop-opacity="0.19"/>
</linearGradient>
<linearGradient id="paint2_linear_43_468" x1="306.753" y1="117.27" x2="402.602" y2="434.029" gradientUnits="userSpaceOnUse">
<stop stop-color="#FF8682"/>
<stop offset="1" stop-color="#A7AFBF" stop-opacity="0.19"/>
</linearGradient>
<linearGradient id="paint3_linear_43_468" x1="309.214" y1="117.752" x2="403.237" y2="428.399" gradientUnits="userSpaceOnUse">
<stop stop-color="#FF8682"/>
<stop offset="1" stop-color="#A7AFBF" stop-opacity="0.19"/>
</linearGradient>
<linearGradient id="paint4_linear_43_468" x1="311.672" y1="118.245" x2="403.889" y2="422.841" gradientUnits="userSpaceOnUse">
<stop stop-color="#FF8682"/>
<stop offset="1" stop-color="#A7AFBF" stop-opacity="0.19"/>
</linearGradient>
<linearGradient id="paint5_linear_43_468" x1="314.127" y1="118.719" x2="404.565" y2="417.357" gradientUnits="userSpaceOnUse">
<stop stop-color="#FF8682"/>
<stop offset="1" stop-color="#A7AFBF" stop-opacity="0.19"/>
</linearGradient>
<linearGradient id="paint6_linear_43_468" x1="316.585" y1="119.201" x2="405.264" y2="411.947" gradientUnits="userSpaceOnUse">
<stop stop-color="#FF8682"/>
<stop offset="1" stop-color="#A7AFBF" stop-opacity="0.19"/>
</linearGradient>
<linearGradient id="paint7_linear_43_468" x1="319.045" y1="119.681" x2="405.988" y2="406.612" gradientUnits="userSpaceOnUse">
<stop stop-color="#FF8682"/>
<stop offset="1" stop-color="#A7AFBF" stop-opacity="0.19"/>
</linearGradient>
<linearGradient id="paint8_linear_43_468" x1="321.502" y1="120.161" x2="406.732" y2="401.354" gradientUnits="userSpaceOnUse">
<stop stop-color="#FF8682"/>
<stop offset="1" stop-color="#A7AFBF" stop-opacity="0.19"/>
</linearGradient>
<linearGradient id="paint9_linear_43_468" x1="323.952" y1="120.636" x2="407.491" y2="396.164" gradientUnits="userSpaceOnUse">
<stop stop-color="#FF8682"/>
<stop offset="1" stop-color="#A7AFBF" stop-opacity="0.19"/>
</linearGradient>
<linearGradient id="paint10_linear_43_468" x1="326.41" y1="121.122" x2="408.279" y2="391.058" gradientUnits="userSpaceOnUse">
<stop stop-color="#FF8682"/>
<stop offset="1" stop-color="#A7AFBF" stop-opacity="0.19"/>
</linearGradient>
<linearGradient id="paint11_linear_43_468" x1="328.862" y1="121.598" x2="409.083" y2="386.017" gradientUnits="userSpaceOnUse">
<stop stop-color="#FF8682"/>
<stop offset="1" stop-color="#A7AFBF" stop-opacity="0.19"/>
</linearGradient>
<linearGradient id="paint12_linear_43_468" x1="331.315" y1="122.076" x2="409.91" y2="381.046" gradientUnits="userSpaceOnUse">
<stop stop-color="#FF8682"/>
<stop offset="1" stop-color="#A7AFBF" stop-opacity="0.19"/>
</linearGradient>
<linearGradient id="paint13_linear_43_468" x1="333.768" y1="122.557" x2="410.754" y2="376.14" gradientUnits="userSpaceOnUse">
<stop stop-color="#FF8682"/>
<stop offset="1" stop-color="#A7AFBF" stop-opacity="0.19"/>
</linearGradient>
<linearGradient id="paint14_linear_43_468" x1="336.213" y1="123.023" x2="411.617" y2="371.309" gradientUnits="userSpaceOnUse">
<stop stop-color="#FF8682"/>
<stop offset="1" stop-color="#A7AFBF" stop-opacity="0.19"/>
</linearGradient>
<linearGradient id="paint15_linear_43_468" x1="338.668" y1="123.504" x2="412.506" y2="366.543" gradientUnits="userSpaceOnUse">
<stop stop-color="#FF8682"/>
<stop offset="1" stop-color="#A7AFBF" stop-opacity="0.19"/>
</linearGradient>
<linearGradient id="paint16_linear_43_468" x1="341.125" y1="123.983" x2="413.416" y2="361.845" gradientUnits="userSpaceOnUse">
<stop stop-color="#FF8682"/>
<stop offset="1" stop-color="#A7AFBF" stop-opacity="0.19"/>
</linearGradient>
<linearGradient id="paint17_linear_43_468" x1="343.534" y1="124.603" x2="418.149" y2="370.196" gradientUnits="userSpaceOnUse">
<stop stop-color="#FF8682"/>
<stop offset="1" stop-color="#A7AFBF" stop-opacity="0.19"/>
</linearGradient>
<linearGradient id="paint18_linear_43_468" x1="345.946" y1="125.284" x2="423.958" y2="382.195" gradientUnits="userSpaceOnUse">
<stop stop-color="#FF8682"/>
<stop offset="1" stop-color="#A7AFBF" stop-opacity="0.19"/>
</linearGradient>
<linearGradient id="paint19_linear_43_468" x1="348.349" y1="125.942" x2="429.767" y2="394.196" gradientUnits="userSpaceOnUse">
<stop stop-color="#FF8682"/>
<stop offset="1" stop-color="#A7AFBF" stop-opacity="0.19"/>
</linearGradient>
<linearGradient id="paint20_linear_43_468" x1="350.755" y1="126.611" x2="435.576" y2="406.201" gradientUnits="userSpaceOnUse">
<stop stop-color="#FF8682"/>
<stop offset="1" stop-color="#A7AFBF" stop-opacity="0.19"/>
</linearGradient>
<linearGradient id="paint21_linear_43_468" x1="353.158" y1="127.267" x2="441.386" y2="418.208" gradientUnits="userSpaceOnUse">
<stop stop-color="#FF8682"/>
<stop offset="1" stop-color="#A7AFBF" stop-opacity="0.19"/>
</linearGradient>
</defs>
</svg>
