<svg width="189" height="80" viewBox="0 0 189 80" fill="none" xmlns="http://www.w3.org/2000/svg">
<rect x="30.2974" width="7.11299" height="57.7948" rx="3.5565" transform="rotate(31.6159 30.2974 0)" fill="#FCFCFC"/>
<rect x="30.461" y="0.687902" width="6.11299" height="56.7948" rx="3.0565" transform="rotate(31.6159 30.461 0.687902)" stroke="black" stroke-opacity="0.03"/>
<rect x="32.1738" y="14.7092" width="7.11299" height="45.7825" rx="3.5565" transform="rotate(31.6159 32.1738 14.7092)" fill="#D5FF40"/>
<rect x="32.3375" y="15.3971" width="6.11299" height="44.7825" rx="3.0565" transform="rotate(31.6159 32.3375 15.3971)" stroke="black" stroke-opacity="0.06"/>
<rect x="44.7981" y="11.8157" width="7.11299" height="61.793" rx="3.5565" transform="rotate(31.6159 44.7981 11.8157)" fill="#FCFCFC"/>
<rect x="44.9618" y="12.5036" width="6.11299" height="60.793" rx="3.0565" transform="rotate(31.6159 44.9618 12.5036)" stroke="black" stroke-opacity="0.09"/>
<rect x="30.7939" y="52.4768" width="7.11299" height="26.7932" rx="3.5565" transform="rotate(31.6159 30.7939 52.4768)" fill="#8B67F3"/>
<rect x="30.9576" y="53.1647" width="6.11299" height="25.7932" rx="3.0565" transform="rotate(31.6159 30.9576 53.1647)" stroke="black" stroke-opacity="0.18"/>
<rect x="47.7671" y="25.0605" width="7.11299" height="30.2769" rx="3.5565" transform="rotate(31.6159 47.7671 25.0605)" fill="#FCFCFC"/>
<rect x="47.9308" y="25.7484" width="6.11299" height="29.2769" rx="3.0565" transform="rotate(31.6159 47.9308 25.7484)" stroke="black" stroke-opacity="0.12"/>
<rect x="51.9692" y="35.79" width="7.11299" height="31.2407" rx="3.5565" transform="rotate(31.6159 51.9692 35.79)" fill="#FCFCFC"/>
<rect x="52.1329" y="36.4779" width="6.11299" height="30.2407" rx="3.0565" transform="rotate(31.6159 52.1329 36.4779)" stroke="black" stroke-opacity="0.15"/>
<rect x="18.498" y="1.95923" width="7.11299" height="29.8279" rx="3.5565" transform="rotate(31.6159 18.498 1.95923)" fill="#FCFCFC"/>
<rect x="18.6617" y="2.64713" width="6.11299" height="28.8279" rx="3.0565" transform="rotate(31.6159 18.6617 2.64713)" stroke="black" stroke-opacity="0.01"/>
<path d="M75.9513 35V15.59H75.4113L75.7113 14H78.4713L82.1913 28.97V14H83.7813V35H82.1913L77.5413 16.52V35H75.9513ZM101.881 32.09C101.881 34.17 100.761 35.21 98.5214 35.21H98.4014C96.1614 35.21 95.0414 34.17 95.0414 32.09V17C95.0414 14.92 96.1614 13.88 98.4014 13.88H98.5214C100.761 13.88 101.881 14.92 101.881 17V32.09ZM98.4014 15.47C97.7814 15.47 97.3314 15.6 97.0514 15.86C96.7714 16.12 96.6314 16.5 96.6314 17V32.09C96.6314 32.59 96.7714 32.97 97.0514 33.23C97.3314 33.49 97.7814 33.62 98.4014 33.62H98.5214C99.1614 33.62 99.6114 33.49 99.8714 33.23C100.151 32.97 100.291 32.59 100.291 32.09V17C100.291 16.48 100.151 16.1 99.8714 15.86C99.6114 15.6 99.1614 15.47 98.5214 15.47H98.4014ZM112.819 14H114.379L116.809 31.04L119.239 14H120.799L117.709 35H115.909L112.819 14ZM132.136 35V15.59H131.596L131.896 14H133.726V35H132.136ZM150.776 35L146.966 24.65V35H145.376V15.59H144.836L145.136 14H146.966V21.83L150.476 14H151.976L147.896 23.09L152.276 35H150.776ZM169.636 32.09C169.636 34.17 168.516 35.21 166.276 35.21H166.156C163.916 35.21 162.796 34.17 162.796 32.09V17C162.796 14.92 163.916 13.88 166.156 13.88H166.276C168.516 13.88 169.636 14.92 169.636 17V32.09ZM166.156 15.47C165.536 15.47 165.086 15.6 164.806 15.86C164.526 16.12 164.386 16.5 164.386 17V32.09C164.386 32.59 164.526 32.97 164.806 33.23C165.086 33.49 165.536 33.62 166.156 33.62H166.276C166.916 33.62 167.366 33.49 167.626 33.23C167.906 32.97 168.046 32.59 168.046 32.09V17C168.046 16.48 167.906 16.1 167.626 15.86C167.366 15.6 166.916 15.47 166.276 15.47H166.156ZM180.573 14H182.133L184.563 31.04L186.993 14H188.553L185.463 35H183.663L180.573 14Z" fill="white"/>
<path d="M97.774 52V55.09C97.774 56.11 98.294 56.62 99.334 56.62H99.874C100.914 56.62 101.434 56.22 101.434 55.42L101.404 49.45L96.904 47.35C96.424 47.13 96.184 46.73 96.184 46.15V39.67C96.184 37.81 97.234 36.88 99.334 36.88H100.144C102.064 36.98 103.024 38.02 103.024 40V44.17L101.434 43.99V40C101.434 38.98 100.914 38.47 99.874 38.47H99.334C98.294 38.47 97.774 38.87 97.774 39.67L97.804 46.09L102.304 48.22C102.784 48.44 103.024 48.84 103.024 49.42V55.42C103.024 57.28 101.974 58.21 99.874 58.21H99.064C97.144 58.11 96.184 57.07 96.184 55.09V52H97.774ZM120.893 37V38.59H118.013V58H116.423V38.59H113.513V37H120.893ZM138.917 55.09C138.917 57.17 137.797 58.21 135.557 58.21H135.437C133.197 58.21 132.077 57.17 132.077 55.09V38.59H131.537L131.837 37H133.667V55.09C133.667 55.59 133.807 55.97 134.087 56.23C134.367 56.49 134.817 56.62 135.437 56.62H135.557C136.197 56.62 136.647 56.49 136.907 56.23C137.187 55.97 137.327 55.59 137.327 55.09V37H138.917V55.09ZM157.075 55.09C157.075 57.17 156.025 58.21 153.925 58.21H150.415V38.59H149.875L150.175 37H153.925C156.025 37 157.075 38.04 157.075 40.12V55.09ZM153.925 38.59H152.005V56.62H153.925C154.965 56.62 155.485 56.11 155.485 55.09V40.12C155.485 39.1 154.965 38.59 153.925 38.59ZM168.576 58V38.59H168.036L168.336 37H170.166V58H168.576ZM188.413 55.09C188.413 57.17 187.293 58.21 185.053 58.21H184.933C182.693 58.21 181.573 57.17 181.573 55.09V40C181.573 37.92 182.693 36.88 184.933 36.88H185.053C187.293 36.88 188.413 37.92 188.413 40V55.09ZM184.933 38.47C184.313 38.47 183.863 38.6 183.583 38.86C183.303 39.12 183.163 39.5 183.163 40V55.09C183.163 55.59 183.303 55.97 183.583 56.23C183.863 56.49 184.313 56.62 184.933 56.62H185.053C185.693 56.62 186.143 56.49 186.403 56.23C186.683 55.97 186.823 55.59 186.823 55.09V40C186.823 39.48 186.683 39.1 186.403 38.86C186.143 38.6 185.693 38.47 185.053 38.47H184.933Z" fill="#D5FF40"/>
</svg>
