<svg width="1016" height="288" viewBox="0 0 1016 288" fill="none" xmlns="http://www.w3.org/2000/svg">
<path d="M268.474 127.115V35.9287C268.474 34.0244 269.133 32.3887 270.451 31.0215C271.77 29.6543 273.381 28.9707 275.285 28.9707H296.818C298.527 28.9707 300.334 29.6543 302.238 31.0215C304.143 32.3887 305.705 34.0244 306.926 35.9287L351.164 103.971V35.7822C351.164 33.8779 351.823 32.2666 353.142 30.9482C354.509 29.6299 356.145 28.9707 358.049 28.9707H370.646C372.551 28.9707 374.162 29.6299 375.48 30.9482C376.848 32.2666 377.531 33.9268 377.531 35.9287V127.115C377.531 129.02 376.848 130.655 375.48 132.022C374.162 133.341 372.551 134 370.646 134H346.33C344.426 134 342.473 133.341 340.471 132.022C338.469 130.655 336.882 129.02 335.71 127.115L295.207 64.2734V127.115C295.207 129.02 294.523 130.655 293.156 132.022C291.838 133.341 290.227 134 288.322 134H275.432C273.527 134 271.892 133.341 270.524 132.022C269.157 130.655 268.474 129.02 268.474 127.115ZM490.951 123.16C480.99 131.9 466.342 136.271 447.006 136.271C427.719 136.271 413.07 131.9 403.061 123.16C393.051 114.371 388.046 100.479 388.046 81.4854C388.046 62.4912 393.051 48.624 403.061 39.8838C413.07 31.1436 427.719 26.7734 447.006 26.7734C466.342 26.7734 480.99 31.1436 490.951 39.8838C500.961 48.624 505.966 62.4912 505.966 81.4854C505.966 100.479 500.961 114.371 490.951 123.16ZM470.956 55.3379C466.024 49.4785 458.041 46.5488 447.006 46.5488C436.02 46.5488 428.036 49.4785 423.056 55.3379C418.124 61.1973 415.658 69.9375 415.658 81.5586C415.658 93.1309 418.124 101.847 423.056 107.706C428.036 113.517 436.02 116.422 447.006 116.422C458.041 116.422 466.024 113.517 470.956 107.706C475.888 101.847 478.354 93.1309 478.354 81.5586C478.354 69.9375 475.888 61.1973 470.956 55.3379ZM505.86 35.123C505.567 34.5371 505.421 33.9023 505.421 33.2188C505.421 32.4863 505.86 31.6074 506.739 30.582C507.667 29.5078 508.961 28.9707 510.621 28.9707H526.661C530.47 28.9707 533.375 31.29 535.377 35.9287L563.722 99.0635L592.066 35.9287C594.068 31.3389 596.974 29.0195 600.782 28.9707H616.822C618.531 28.9707 619.825 29.5078 620.704 30.582C621.583 31.6074 622.022 32.4863 622.022 33.2188C622.022 33.9023 621.9 34.5371 621.656 35.123L579.469 126.529C577.174 131.51 573.683 134 568.995 134H558.448C553.761 134 550.27 131.51 547.975 126.529L505.86 35.123ZM629.534 127.262V35.9287C629.534 34.0244 630.218 32.3887 631.585 31.0215C632.952 29.6543 634.588 28.9707 636.492 28.9707H650.115C652.117 28.9707 653.777 29.6543 655.096 31.0215C656.463 32.3887 657.146 34.0244 657.146 35.9287V127.115C657.146 129.02 656.438 130.655 655.022 132.022C653.655 133.341 652.02 134 650.115 134H636.492C634.588 134 632.952 133.365 631.585 132.096C630.218 130.777 629.534 129.166 629.534 127.262ZM782.358 130.777C782.358 132.926 781.089 134 778.55 134H761.777C759.873 134 757.822 133.341 755.625 132.022C753.428 130.655 751.719 129.02 750.498 127.115L737.607 106.681C734.531 101.7 731.431 97.9648 728.306 95.4746C725.181 92.9355 721.421 91.666 717.026 91.666H701.279V127.262C701.279 129.166 700.596 130.777 699.229 132.096C697.91 133.365 696.299 134 694.395 134H680.625C678.721 134 677.085 133.316 675.718 131.949C674.351 130.533 673.667 128.873 673.667 126.969V35.9287C673.667 34.0244 674.351 32.3643 675.718 30.9482C677.085 29.5322 678.721 28.8242 680.625 28.8242H694.395C696.299 28.8242 697.91 29.5322 699.229 30.9482C700.596 32.3643 701.279 34.0244 701.279 35.9287V71.0117H717.026C721.323 71.0117 725.083 69.8398 728.306 67.4961C731.577 65.1523 734.678 61.3682 737.607 56.1436L748.96 35.9287C751.548 31.2412 755.063 28.873 759.507 28.8242H776.426C778.77 28.8242 779.941 29.8496 779.941 31.9004C779.941 33.0234 779.526 34.3662 778.696 35.9287L762.803 64.7129C760.508 68.9121 757.92 72.3789 755.039 75.1133C752.207 77.8477 748.496 79.7764 743.906 80.8994C747.129 81.583 750.425 83.6094 753.794 86.9785C757.212 90.3477 760.215 94.0098 762.803 97.9648L781.113 127.115C781.943 128.531 782.358 129.752 782.358 130.777ZM883.107 123.16C873.146 131.9 858.498 136.271 839.162 136.271C819.875 136.271 805.227 131.9 795.217 123.16C785.207 114.371 780.202 100.479 780.202 81.4854C780.202 62.4912 785.207 48.624 795.217 39.8838C805.227 31.1436 819.875 26.7734 839.162 26.7734C858.498 26.7734 873.146 31.1436 883.107 39.8838C893.117 48.624 898.122 62.4912 898.122 81.4854C898.122 100.479 893.117 114.371 883.107 123.16ZM863.112 55.3379C858.181 49.4785 850.197 46.5488 839.162 46.5488C828.176 46.5488 820.192 49.4785 815.212 55.3379C810.28 61.1973 807.814 69.9375 807.814 81.5586C807.814 93.1309 810.28 101.847 815.212 107.706C820.192 113.517 828.176 116.422 839.162 116.422C850.197 116.422 858.181 113.517 863.112 107.706C868.044 101.847 870.51 93.1309 870.51 81.5586C870.51 69.9375 868.044 61.1973 863.112 55.3379ZM898.017 35.123C897.724 34.5371 897.577 33.9023 897.577 33.2188C897.577 32.4863 898.017 31.6074 898.896 30.582C899.823 29.5078 901.117 28.9707 902.777 28.9707H918.817C922.626 28.9707 925.531 31.29 927.533 35.9287L955.878 99.0635L984.223 35.9287C986.225 31.3389 989.13 29.0195 992.938 28.9707H1008.98C1010.69 28.9707 1011.98 29.5078 1012.86 30.582C1013.74 31.6074 1014.18 32.4863 1014.18 33.2188C1014.18 33.9023 1014.06 34.5371 1013.81 35.123L971.625 126.529C969.33 131.51 965.839 134 961.151 134H950.604C945.917 134 942.426 131.51 940.131 126.529L898.017 35.123Z" fill="white"/>
<path d="M262.468 221.12C262.468 218.239 263.322 216.188 265.031 214.968C266.74 213.698 268.4 213.063 270.012 213.063H278.728C283.122 213.063 286.467 215.456 288.762 220.241C291.057 225.026 296.208 227.419 304.216 227.419L329.851 227.932C338.444 227.932 342.741 225.124 342.741 219.509C342.741 215.261 337.492 211.916 326.994 209.475C322.307 208.352 317.131 207.253 311.467 206.179C305.803 205.056 300.163 203.664 294.548 202.004C288.981 200.344 283.854 198.391 279.167 196.145C274.479 193.898 270.671 190.822 267.741 186.916C264.86 182.961 263.42 178.322 263.42 173C263.42 163.186 266.911 155.642 273.894 150.368C280.876 145.046 292.888 142.385 309.929 142.385L328.532 142.824C338.542 142.824 347.551 145.412 355.559 150.588C363.615 155.715 367.644 162.136 367.644 169.851C367.644 172.731 366.789 174.807 365.08 176.076C363.371 177.346 361.735 177.98 360.173 177.98H351.457C347.062 177.98 343.718 175.588 341.423 170.803C339.128 165.969 333.977 163.552 325.969 163.552L303.923 163.112C295.329 163.112 291.032 165.92 291.032 171.535C291.032 174.611 293.742 177.126 299.162 179.079C304.631 181.032 311.223 182.766 318.938 184.279C326.701 185.744 334.489 187.526 342.302 189.626C350.114 191.726 356.73 195.192 362.15 200.026C367.619 204.812 370.354 210.793 370.354 217.971C370.354 227.785 366.838 235.354 359.807 240.676C352.824 245.949 340.837 248.586 323.845 248.586L301.652 248.146C291.643 248.146 282.609 245.583 274.553 240.456C266.496 235.28 262.468 228.835 262.468 221.12ZM369.662 156.813V149.929C369.662 147.927 370.321 146.267 371.64 144.948C372.958 143.63 374.618 142.971 376.62 142.971H469.564C471.566 142.971 473.227 143.63 474.545 144.948C475.863 146.267 476.522 147.927 476.522 149.929V156.813C476.522 158.815 475.863 160.476 474.545 161.794C473.227 163.063 471.566 163.698 469.564 163.698H436.898V241.262C436.898 243.166 436.215 244.777 434.848 246.096C433.529 247.365 431.918 248 430.014 248H416.171C414.267 248 412.631 247.365 411.264 246.096C409.945 244.777 409.286 243.166 409.286 241.262V163.698H376.62C374.618 163.698 372.958 163.063 371.64 161.794C370.321 160.476 369.662 158.815 369.662 156.813ZM482.569 206.472V149.929C482.569 148.024 483.229 146.389 484.547 145.021C485.914 143.654 487.599 142.971 489.601 142.971H503.297C505.152 142.971 506.764 143.654 508.131 145.021C509.498 146.389 510.182 148.024 510.182 149.929V206.618C510.182 213.796 511.744 219.143 514.869 222.658C518.043 226.174 522.926 227.932 529.518 227.932H541.236C547.828 227.932 552.687 226.174 555.812 222.658C558.985 219.143 560.572 213.796 560.572 206.618V149.929C560.572 148.024 561.231 146.389 562.55 145.021C563.917 143.654 565.553 142.971 567.457 142.971H581.08C583.082 142.971 584.767 143.654 586.134 145.021C587.501 146.389 588.185 148.024 588.185 149.929V206.472C588.185 219.851 584.254 230.227 576.393 237.6C568.531 244.924 557.057 248.586 541.969 248.586H528.785C513.648 248.586 502.149 244.924 494.288 237.6C486.476 230.227 482.569 219.851 482.569 206.472ZM603.167 241.262V150.075C603.167 148.073 603.851 146.389 605.218 145.021C606.585 143.654 608.221 142.971 610.125 142.971H651.067C672.259 142.971 687.664 147.219 697.283 155.715C706.951 164.162 711.785 177.443 711.785 195.559C711.785 213.625 706.951 226.882 697.283 235.329C687.664 243.776 672.259 248 651.067 248H610.125C608.221 248 606.585 247.365 605.218 246.096C603.851 244.777 603.167 243.166 603.167 241.262ZM630.779 227.272H650.262C663.396 227.272 672.332 224.88 677.068 220.095C681.805 215.31 684.173 207.131 684.173 195.559C684.173 183.938 681.805 175.734 677.068 170.949C672.332 166.115 663.396 163.698 650.262 163.698H630.779V227.272ZM722.3 241.262V149.929C722.3 148.024 722.983 146.389 724.351 145.021C725.718 143.654 727.354 142.971 729.258 142.971H742.881C744.883 142.971 746.543 143.654 747.861 145.021C749.229 146.389 749.912 148.024 749.912 149.929V241.115C749.912 243.02 749.204 244.655 747.788 246.022C746.421 247.341 744.785 248 742.881 248H729.258C727.354 248 725.718 247.365 724.351 246.096C722.983 244.777 722.3 243.166 722.3 241.262ZM863.332 237.16C853.371 245.9 838.723 250.271 819.387 250.271C800.1 250.271 785.451 245.9 775.441 237.16C765.432 228.371 760.427 214.479 760.427 195.485C760.427 176.491 765.432 162.624 775.441 153.884C785.451 145.144 800.1 140.773 819.387 140.773C838.723 140.773 853.371 145.144 863.332 153.884C873.342 162.624 878.347 176.491 878.347 195.485C878.347 214.479 873.342 228.371 863.332 237.16ZM843.337 169.338C838.405 163.479 830.422 160.549 819.387 160.549C808.4 160.549 800.417 163.479 795.437 169.338C790.505 175.197 788.039 183.938 788.039 195.559C788.039 207.131 790.505 215.847 795.437 221.706C800.417 227.517 808.4 230.422 819.387 230.422C830.422 230.422 838.405 227.517 843.337 221.706C848.269 215.847 850.734 207.131 850.734 195.559C850.734 183.938 848.269 175.197 843.337 169.338Z" fill="#D5FF40"/>
<rect x="110.297" width="25.8947" height="210.401" rx="12.9474" transform="rotate(31.6159 110.297 0)" fill="#FCFCFC"/>
<rect x="110.461" y="0.687902" width="24.8947" height="209.401" rx="12.4474" transform="rotate(31.6159 110.461 0.687902)" stroke="black" stroke-opacity="0.03"/>
<rect x="117.128" y="53.5479" width="25.8947" height="166.67" rx="12.9474" transform="rotate(31.6159 117.128 53.5479)" fill="url(#paint0_linear_749_327)"/>
<rect x="117.292" y="54.2358" width="24.8947" height="165.67" rx="12.4474" transform="rotate(31.6159 117.292 54.2358)" stroke="black" stroke-opacity="0.06"/>
<rect x="163.086" y="43.0137" width="25.8947" height="224.956" rx="12.9474" transform="rotate(31.6159 163.086 43.0137)" fill="#FCFCFC"/>
<rect x="163.25" y="43.7016" width="24.8947" height="223.956" rx="12.4474" transform="rotate(31.6159 163.25 43.7016)" stroke="black" stroke-opacity="0.09"/>
<rect x="112.104" y="191.04" width="25.8947" height="97.5401" rx="12.9474" transform="rotate(31.6159 112.104 191.04)" fill="url(#paint1_linear_749_327)"/>
<rect x="112.268" y="191.728" width="24.8947" height="96.5401" rx="12.4474" transform="rotate(31.6159 112.268 191.728)" stroke="black" stroke-opacity="0.18"/>
<rect x="173.896" y="91.2325" width="25.8947" height="110.223" rx="12.9474" transform="rotate(31.6159 173.896 91.2325)" fill="#FCFCFC"/>
<rect x="174.059" y="91.9204" width="24.8947" height="109.223" rx="12.4474" transform="rotate(31.6159 174.059 91.9204)" stroke="black" stroke-opacity="0.12"/>
<rect x="189.192" y="130.293" width="25.8947" height="113.731" rx="12.9474" transform="rotate(31.6159 189.192 130.293)" fill="#FCFCFC"/>
<rect x="189.356" y="130.981" width="24.8947" height="112.731" rx="12.4474" transform="rotate(31.6159 189.356 130.981)" stroke="black" stroke-opacity="0.15"/>
<rect x="67.3408" y="7.13171" width="25.8947" height="108.588" rx="12.9474" transform="rotate(31.6159 67.3408 7.13171)" fill="#FCFCFC"/>
<rect x="67.5045" y="7.81962" width="24.8947" height="107.588" rx="12.4474" transform="rotate(31.6159 67.5045 7.81962)" stroke="black" stroke-opacity="0.01"/>
<defs>
<linearGradient id="paint0_linear_749_327" x1="130.075" y1="53.5479" x2="130.075" y2="220.218" gradientUnits="userSpaceOnUse">
<stop stop-color="#F26B4D"/>
<stop offset="1" stop-color="#D5FF40"/>
</linearGradient>
<linearGradient id="paint1_linear_749_327" x1="125.052" y1="191.04" x2="125.052" y2="288.58" gradientUnits="userSpaceOnUse">
<stop stop-color="#E05D52"/>
<stop offset="1" stop-color="#D5FF40"/>
</linearGradient>
</defs>
</svg>
