<svg width="212" height="288" viewBox="0 0 212 288" fill="none" xmlns="http://www.w3.org/2000/svg">
<rect x="110.297" width="25.8947" height="210.401" rx="12.9474" transform="rotate(31.6159 110.297 0)" fill="#FCFCFC"/>
<rect x="110.461" y="0.687902" width="24.8947" height="209.401" rx="12.4474" transform="rotate(31.6159 110.461 0.687902)" stroke="black" stroke-opacity="0.03"/>
<rect x="117.128" y="53.5479" width="25.8947" height="166.67" rx="12.9474" transform="rotate(31.6159 117.128 53.5479)" fill="url(#paint0_linear_716_209)"/>
<rect x="117.292" y="54.2358" width="24.8947" height="165.67" rx="12.4474" transform="rotate(31.6159 117.292 54.2358)" stroke="black" stroke-opacity="0.06"/>
<rect x="163.086" y="43.0137" width="25.8947" height="224.956" rx="12.9474" transform="rotate(31.6159 163.086 43.0137)" fill="#FCFCFC"/>
<rect x="163.25" y="43.7016" width="24.8947" height="223.956" rx="12.4474" transform="rotate(31.6159 163.25 43.7016)" stroke="black" stroke-opacity="0.09"/>
<rect x="112.104" y="191.04" width="25.8947" height="97.5401" rx="12.9474" transform="rotate(31.6159 112.104 191.04)" fill="url(#paint1_linear_716_209)"/>
<rect x="112.268" y="191.728" width="24.8947" height="96.5401" rx="12.4474" transform="rotate(31.6159 112.268 191.728)" stroke="black" stroke-opacity="0.18"/>
<rect x="173.896" y="91.2325" width="25.8947" height="110.223" rx="12.9474" transform="rotate(31.6159 173.896 91.2325)" fill="#FCFCFC"/>
<rect x="174.059" y="91.9204" width="24.8947" height="109.223" rx="12.4474" transform="rotate(31.6159 174.059 91.9204)" stroke="black" stroke-opacity="0.12"/>
<rect x="189.192" y="130.293" width="25.8947" height="113.731" rx="12.9474" transform="rotate(31.6159 189.192 130.293)" fill="#FCFCFC"/>
<rect x="189.356" y="130.981" width="24.8947" height="112.731" rx="12.4474" transform="rotate(31.6159 189.356 130.981)" stroke="black" stroke-opacity="0.15"/>
<rect x="67.3408" y="7.13171" width="25.8947" height="108.588" rx="12.9474" transform="rotate(31.6159 67.3408 7.13171)" fill="#FCFCFC"/>
<rect x="67.5045" y="7.81962" width="24.8947" height="107.588" rx="12.4474" transform="rotate(31.6159 67.5045 7.81962)" stroke="black" stroke-opacity="0.01"/>
<defs>
<linearGradient id="paint0_linear_716_209" x1="130.075" y1="53.5479" x2="130.075" y2="220.218" gradientUnits="userSpaceOnUse">
<stop stop-color="#F26B4D"/>
<stop offset="1" stop-color="#D5FF40"/>
</linearGradient>
<linearGradient id="paint1_linear_716_209" x1="125.052" y1="191.04" x2="125.052" y2="288.58" gradientUnits="userSpaceOnUse">
<stop stop-color="#E05D52"/>
<stop offset="1" stop-color="#D5FF40"/>
</linearGradient>
</defs>
</svg>
